<svg width="22" height="22" viewBox="0 0 22 22" fill="none" xmlns="http://www.w3.org/2000/svg">
<g id="element-11">
<g id="grid">
<g id="element-11_2">
<path id="Vector" d="M7.99203 1.83333H3.45453C2.55845 1.83333 1.83203 2.55975 1.83203 3.45583V7.99333C1.83203 8.88941 2.55845 9.61583 3.45453 9.61583H7.99203C8.88811 9.61583 9.61453 8.88941 9.61453 7.99333V3.45583C9.61453 2.55975 8.88811 1.83333 7.99203 1.83333Z" fill="#F1F1F2"/>
<g id="Group" opacity="0.3">
<path id="Vector_2" d="M18.5428 1.83333H14.0053C13.1092 1.83333 12.3828 2.55975 12.3828 3.45583V7.99333C12.3828 8.88941 13.1092 9.61583 14.0053 9.61583H18.5428C19.4389 9.61583 20.1653 8.88941 20.1653 7.99333V3.45583C20.1653 2.55975 19.4389 1.83333 18.5428 1.83333Z" fill="#F1F1F2"/>
</g>
<path id="Vector_3" d="M18.535 12.375H13.9975C13.1014 12.375 12.375 13.1014 12.375 13.9975V18.535C12.375 19.4311 13.1014 20.1575 13.9975 20.1575H18.535C19.4311 20.1575 20.1575 19.4311 20.1575 18.535V13.9975C20.1575 13.1014 19.4311 12.375 18.535 12.375Z" fill="#F1F1F2"/>
<g id="Group_2" opacity="0.3">
<path id="Vector_4" d="M7.99203 12.375H3.45453C2.55845 12.375 1.83203 13.1014 1.83203 13.9975V18.535C1.83203 19.4311 2.55845 20.1575 3.45453 20.1575H7.99203C8.88811 20.1575 9.61453 19.4311 9.61453 18.535V13.9975C9.61453 13.1014 8.88811 12.375 7.99203 12.375Z" fill="#F1F1F2"/>
</g>
</g>
</g>
</g>
</svg>
