<svg width="20" height="20" viewBox="0 0 20 20" fill="none" xmlns="http://www.w3.org/2000/svg">
<g id="grid">
<g id="element-11">
<path id="Vector" d="M6.99337 0.833374H2.45587C1.55979 0.833374 0.833374 1.55979 0.833374 2.45587V6.99337C0.833374 7.88946 1.55979 8.61587 2.45587 8.61587H6.99337C7.88946 8.61587 8.61587 7.88946 8.61587 6.99337V2.45587C8.61587 1.55979 7.88946 0.833374 6.99337 0.833374Z" fill="#7E8299"/>
<g id="Group" opacity="0.3">
<path id="Vector_2" d="M17.5442 0.833374H13.0067C12.1106 0.833374 11.3842 1.55979 11.3842 2.45587V6.99337C11.3842 7.88946 12.1106 8.61587 13.0067 8.61587H17.5442C18.4402 8.61587 19.1667 7.88946 19.1667 6.99337V2.45587C19.1667 1.55979 18.4402 0.833374 17.5442 0.833374Z" fill="#7E8299"/>
</g>
<path id="Vector_3" d="M17.535 11.375H12.9975C12.1014 11.375 11.375 12.1014 11.375 12.9975V17.535C11.375 18.4311 12.1014 19.1575 12.9975 19.1575H17.535C18.4311 19.1575 19.1575 18.4311 19.1575 17.535V12.9975C19.1575 12.1014 18.4311 11.375 17.535 11.375Z" fill="#7E8299"/>
<g id="Group_2" opacity="0.3">
<path id="Vector_4" d="M6.99337 11.375H2.45587C1.55979 11.375 0.833374 12.1014 0.833374 12.9975V17.535C0.833374 18.4311 1.55979 19.1575 2.45587 19.1575H6.99337C7.88946 19.1575 8.61587 18.4311 8.61587 17.535V12.9975C8.61587 12.1014 7.88946 11.375 6.99337 11.375Z" fill="#7E8299"/>
</g>
</g>
</g>
</svg>
