<svg width="10" height="10" viewBox="0 0 10 10" fill="none" xmlns="http://www.w3.org/2000/svg">
<g id="arrows">
<g id="arrow-right">
<path id="Vector" d="M5.00062 9.62663C4.86821 9.6274 4.73856 9.58872 4.62821 9.51552C4.51787 9.44232 4.43182 9.33791 4.38104 9.21562C4.33026 9.09332 4.31706 8.95868 4.3431 8.82884C4.36915 8.69901 4.43327 8.57988 4.52729 8.48663L8.01396 4.99996L4.52729 1.5133C4.40312 1.38839 4.33343 1.21942 4.33343 1.0433C4.33343 0.867174 4.40312 0.698206 4.52729 0.573298C4.58926 0.510812 4.663 0.461216 4.74424 0.42737C4.82548 0.393524 4.91261 0.376099 5.00062 0.376099C5.08863 0.376099 5.17577 0.393524 5.25701 0.42737C5.33825 0.461216 5.41198 0.510812 5.47396 0.573298L9.42729 4.52663C9.49028 4.58837 9.54039 4.662 9.57472 4.74325C9.60906 4.8245 9.62692 4.91176 9.62729 4.99996C9.62692 5.08817 9.60906 5.17542 9.57472 5.25667C9.54039 5.33792 9.49028 5.41155 9.42729 5.4733L5.47396 9.42663C5.41221 9.48962 5.33858 9.53974 5.25733 9.57407C5.17608 9.6084 5.08883 9.62627 5.00062 9.62663Z" fill="#A1A5B7"/>
<path id="Vector_2" opacity="0.3" d="M8.95971 5.66659H1.03971C0.862903 5.66659 0.693333 5.59635 0.568309 5.47132C0.443285 5.3463 0.373047 5.17673 0.373047 4.99992C0.373047 4.82311 0.443285 4.65354 0.568309 4.52851C0.693333 4.40349 0.862903 4.33325 1.03971 4.33325H8.95971C9.13653 4.33325 9.30609 4.40349 9.43112 4.52851C9.55614 4.65354 9.62638 4.82311 9.62638 4.99992C9.62638 5.17673 9.55614 5.3463 9.43112 5.47132C9.30609 5.59635 9.13653 5.66659 8.95971 5.66659Z" fill="#A1A5B7"/>
</g>
</g>
</svg>
