<svg width="11" height="14" viewBox="0 0 11 14" fill="none" xmlns="http://www.w3.org/2000/svg">
<g id="arrows">
<g id="black-left-line">
<path id="Vector" d="M15.7015 6.31251H8.23066V3.33334C8.23975 3.22315 8.21301 3.11298 8.15444 3.01921C8.09587 2.92544 8.00859 2.85309 7.90558 2.81292C7.80258 2.77274 7.68936 2.7669 7.58277 2.79626C7.47618 2.82561 7.38191 2.8886 7.314 2.97584L3.64733 6.64251C3.55104 6.74026 3.49707 6.87196 3.49707 7.00917C3.49707 7.14638 3.55104 7.27809 3.64733 7.37584L7.314 11.0425C7.3856 11.1253 7.48141 11.1836 7.5879 11.209C7.6944 11.2344 7.80619 11.2258 7.90749 11.1843C8.0088 11.1427 8.09449 11.0704 8.15248 10.9775C8.21047 10.8847 8.23782 10.7759 8.23066 10.6667V7.68751H15.7015C15.8838 7.68751 16.0587 7.61507 16.1876 7.48614C16.3166 7.35721 16.389 7.18234 16.389 7.00001C16.389 6.81767 16.3166 6.6428 16.1876 6.51387C16.0587 6.38494 15.8838 6.31251 15.7015 6.31251Z" fill="#A1A5B7"/>
<path id="Vector_2" opacity="0.3" d="M0.833252 13.5633C0.650916 13.5633 0.476047 13.4909 0.347116 13.3619C0.218185 13.233 0.145752 13.0581 0.145752 12.8758V1.12415C0.145752 0.941809 0.218185 0.766941 0.347116 0.63801C0.476047 0.509078 0.650916 0.436646 0.833252 0.436646C1.01559 0.436646 1.19046 0.509078 1.31939 0.63801C1.44832 0.766941 1.52075 0.941809 1.52075 1.12415V12.8758C1.52199 12.9664 1.50504 13.0564 1.47093 13.1404C1.43682 13.2243 1.38622 13.3006 1.32214 13.3647C1.25805 13.4288 1.18177 13.4794 1.0978 13.5135C1.01383 13.5476 0.923877 13.5645 0.833252 13.5633Z" fill="#A1A5B7"/>
</g>
</g>
</svg>
