<svg width="6" height="10" viewBox="0 0 6 10" fill="none" xmlns="http://www.w3.org/2000/svg">
<g id="arrows">
<path id="right" d="M0.893444 9.66671C0.761028 9.66748 0.631381 9.62879 0.521035 9.55559C0.410689 9.48239 0.324641 9.37799 0.273864 9.25569C0.223086 9.1334 0.209878 8.99875 0.235925 8.86892C0.261971 8.73909 0.326091 8.61995 0.420111 8.52671L3.90011 5.00004L0.420111 1.55337C0.357952 1.49121 0.308644 1.41742 0.275004 1.33621C0.241364 1.25499 0.224049 1.16795 0.224049 1.08004C0.224049 0.992133 0.241364 0.905088 0.275004 0.823873C0.308644 0.742658 0.357952 0.668865 0.420111 0.606706C0.48227 0.544547 0.556063 0.49524 0.637278 0.461599C0.718492 0.427959 0.805538 0.410645 0.893444 0.410645C0.98135 0.410645 1.0684 0.427959 1.14961 0.461599C1.23082 0.49524 1.30462 0.544547 1.36678 0.606706L5.33344 4.56004C5.45761 4.68495 5.52731 4.85392 5.52731 5.03004C5.52731 5.20616 5.45761 5.37513 5.33344 5.50004L1.38678 9.44671C1.32445 9.51577 1.24835 9.57102 1.16339 9.60891C1.07843 9.6468 0.986473 9.66649 0.893444 9.66671Z" fill="#A1A5B7"/>
</g>
</svg>
