<svg width="12" height="8" viewBox="0 0 12 8" fill="none" xmlns="http://www.w3.org/2000/svg">
<g id="arrows">
<path id="down" d="M5.90836 7.36667C5.79868 7.3673 5.68996 7.34628 5.58843 7.30481C5.4869 7.26334 5.39456 7.20224 5.31669 7.125L0.316689 2.125C0.238582 2.04753 0.176587 1.95536 0.13428 1.85382C0.0919725 1.75227 0.0701904 1.64334 0.0701904 1.53333C0.0701904 1.42332 0.0919725 1.3144 0.13428 1.21285C0.176587 1.1113 0.238582 1.01914 0.316689 0.941668C0.472824 0.786459 0.684035 0.699341 0.904189 0.699341C1.12434 0.699341 1.33555 0.786459 1.49169 0.941668L5.90836 5.35834L10.3167 0.941668C10.4728 0.786459 10.684 0.699341 10.9042 0.699341C11.1243 0.699341 11.3356 0.786459 11.4917 0.941668C11.5698 1.01914 11.6318 1.1113 11.6741 1.21285C11.7164 1.3144 11.7382 1.42332 11.7382 1.53333C11.7382 1.64334 11.7164 1.75227 11.6741 1.85382C11.6318 1.95536 11.5698 2.04753 11.4917 2.125L6.49169 7.125C6.33647 7.27896 6.12697 7.36575 5.90836 7.36667Z" fill="#A1A5B7"/>
</g>
</svg>
