<svg width="33" height="33" viewBox="0 0 33 33" fill="none" xmlns="http://www.w3.org/2000/svg">
<g id="support">
<g id="information-1">
<path id="Vector" d="M16.5001 32.1769C13.3995 32.1769 10.3685 31.2575 7.79037 29.5349C5.21228 27.8122 3.20291 25.3638 2.01635 22.4992C0.829791 19.6346 0.519332 16.4825 1.12424 13.4414C1.72914 10.4003 3.22224 7.60695 5.41472 5.41447C7.6072 3.22199 10.4006 1.7289 13.4416 1.12399C16.4827 0.519088 19.6348 0.829547 22.4995 2.01611C25.3641 3.20267 27.8125 5.21204 29.5351 7.79012C31.2577 10.3682 32.1772 13.3992 32.1772 16.4998C32.1733 20.6565 30.5204 24.6418 27.5812 27.581C24.642 30.5201 20.6567 32.1731 16.5001 32.1769ZM16.5001 3.01026C13.8321 3.01026 11.224 3.80141 9.00568 5.28367C6.78733 6.76592 5.05833 8.87271 4.03734 11.3376C3.01634 13.8025 2.74921 16.5148 3.2697 19.1315C3.7902 21.7483 5.07496 24.1519 6.96151 26.0384C8.84807 27.925 11.2517 29.2097 13.8684 29.7302C16.4851 30.2507 19.1974 29.9836 21.6623 28.9626C24.1272 27.9416 26.234 26.2126 27.7163 23.9943C29.1985 21.7759 29.9897 19.1678 29.9897 16.4998C29.9858 12.9234 28.5634 9.49448 26.0344 6.96553C23.5055 4.43658 20.0766 3.01412 16.5001 3.01026Z" fill="#F7C000"/>
<path id="Vector_2" d="M16.5001 18.5416C16.8869 18.5416 17.2578 18.388 17.5313 18.1145C17.8048 17.841 17.9584 17.47 17.9584 17.0833V10.2874C17.9584 9.90066 17.8048 9.52973 17.5313 9.25624C17.2578 8.98275 16.8869 8.8291 16.5001 8.8291C16.1133 8.8291 15.7424 8.98275 15.4689 9.25624C15.1954 9.52973 15.0417 9.90066 15.0417 10.2874V17.0833C15.0417 17.47 15.1954 17.841 15.4689 18.1145C15.7424 18.388 16.1133 18.5416 16.5001 18.5416Z" fill="#F7C000"/>
<path id="Vector_3" d="M16.5002 24.1707C17.5069 24.1707 18.3231 23.3546 18.3231 22.3478C18.3231 21.3411 17.5069 20.5249 16.5002 20.5249C15.4934 20.5249 14.6772 21.3411 14.6772 22.3478C14.6772 23.3546 15.4934 24.1707 16.5002 24.1707Z" fill="#F7C000"/>
</g>
</g>
</svg>
