<svg width="21" height="20" viewBox="0 0 21 20" fill="none" xmlns="http://www.w3.org/2000/svg">
<g id="support">
<g id="information-1">
<path id="Vector" opacity="0.3" d="M10.4999 19.1667C16.2529 19.1667 20.9166 15.0627 20.9166 10C20.9166 4.93743 16.2529 0.833374 10.4999 0.833374C4.74695 0.833374 0.083252 4.93743 0.083252 10C0.083252 15.0627 4.74695 19.1667 10.4999 19.1667Z" fill="#A1A5B7"/>
<path id="Vector_2" d="M10.4999 11.2833C10.7762 11.2833 11.0411 11.1868 11.2365 11.0149C11.4318 10.843 11.5416 10.6098 11.5416 10.3667V6.09501C11.5416 5.8519 11.4318 5.61874 11.2365 5.44683C11.0411 5.27492 10.7762 5.17834 10.4999 5.17834C10.2237 5.17834 9.9587 5.27492 9.76335 5.44683C9.568 5.61874 9.45825 5.8519 9.45825 6.09501V10.3667C9.45825 10.6098 9.568 10.843 9.76335 11.0149C9.9587 11.1868 10.2237 11.2833 10.4999 11.2833Z" fill="#A1A5B7"/>
<path id="Vector_3" d="M10.4998 14.8217C11.219 14.8217 11.8019 14.3087 11.8019 13.6759C11.8019 13.043 11.219 12.53 10.4998 12.53C9.78072 12.53 9.19775 13.043 9.19775 13.6759C9.19775 14.3087 9.78072 14.8217 10.4998 14.8217Z" fill="#A1A5B7"/>
</g>
</g>
</svg>
