<svg width="16" height="16" viewBox="0 0 16 16" fill="none" xmlns="http://www.w3.org/2000/svg">
<g id="05-Back">
<path id="Vector" d="M2.9375 0.125H1.8125C0.880519 0.125 0.125 0.880519 0.125 1.8125V14.1875C0.125 15.1195 0.880519 15.875 1.8125 15.875H2.9375C3.86948 15.875 4.625 15.1195 4.625 14.1875V1.8125C4.625 0.880519 3.86948 0.125 2.9375 0.125Z" fill="white"/>
<path id="Vector_2" d="M14.0974 0.125C13.6512 0.126328 13.2217 0.294925 12.8937 0.5975L6.34616 6.64437C6.15827 6.81668 6.00825 7.02617 5.90562 7.25954C5.803 7.49291 5.75 7.74506 5.75 8C5.75 8.25494 5.803 8.50709 5.90562 8.74046C6.00825 8.97383 6.15827 9.18332 6.34616 9.35563L12.8937 15.4025C13.1475 15.6362 13.4639 15.7909 13.8043 15.8478C14.1446 15.9047 14.4941 15.8613 14.8102 15.723C15.1263 15.5846 15.3953 15.3572 15.5843 15.0686C15.7734 14.78 15.8744 14.4425 15.8749 14.0975V1.9025C15.8734 1.43153 15.6857 0.980281 15.3527 0.647256C15.0196 0.314231 14.5684 0.126483 14.0974 0.125Z" fill="white"/>
</g>
</svg>
