<svg width="25" height="28" viewBox="0 0 25 28" fill="none" xmlns="http://www.w3.org/2000/svg">
<g id="time">
<path id="calendar" d="M24.0267 11.44H1.97332C1.69509 11.4504 1.43196 11.5692 1.24013 11.771C1.0483 11.9728 0.94298 12.2416 0.946655 12.52V20.08C0.934324 21.0247 1.10909 21.9625 1.46089 22.8394C1.81269 23.7163 2.33456 24.5149 2.99642 25.1891C3.65827 25.8634 4.44703 26.4 5.31723 26.768C6.18743 27.136 7.12186 27.3281 8.06666 27.3333H18C19.8862 27.2878 21.6786 26.5011 22.9888 25.1434C24.299 23.7858 25.0216 21.9666 25 20.08V12.52C25.0044 12.2502 24.9064 11.9889 24.7258 11.7885C24.5452 11.5881 24.2954 11.4635 24.0267 11.44ZM8.73332 21.84C8.5109 21.8398 8.29344 21.7743 8.10803 21.6514C7.92262 21.5286 7.77746 21.3539 7.69063 21.1491C7.60379 20.9443 7.57914 20.7185 7.61972 20.4998C7.66031 20.2812 7.76434 20.0792 7.91887 19.9193C8.07339 19.7593 8.27157 19.6483 8.48871 19.6002C8.70586 19.552 8.93237 19.5689 9.14003 19.6485C9.34769 19.7282 9.52731 19.8672 9.65652 20.0483C9.78572 20.2293 9.8588 20.4444 9.86665 20.6666C9.86314 20.9649 9.74219 21.2498 9.53003 21.4594C9.31787 21.6691 9.0316 21.7867 8.73332 21.7866V21.84ZM8.73332 17.5866C8.50917 17.5866 8.29005 17.5202 8.10368 17.3956C7.9173 17.2711 7.77204 17.0941 7.68626 16.887C7.60048 16.6799 7.57803 16.4521 7.62176 16.2322C7.66549 16.0124 7.77343 15.8104 7.93193 15.6519C8.09043 15.4934 8.29237 15.3855 8.51222 15.3418C8.73206 15.298 8.95994 15.3205 9.16703 15.4062C9.37412 15.492 9.55112 15.6373 9.67565 15.8237C9.80019 16.01 9.86665 16.2292 9.86665 16.4533C9.86844 16.6026 9.84035 16.7508 9.78403 16.8891C9.72771 17.0274 9.64429 17.1531 9.53869 17.2587C9.4331 17.3643 9.30745 17.4477 9.16914 17.504C9.03083 17.5603 8.88265 17.5884 8.73332 17.5866ZM13 21.84C12.7017 21.833 12.4183 21.7087 12.2111 21.494C12.0039 21.2793 11.8897 20.9916 11.8933 20.6933C11.8933 20.3963 12.0113 20.1114 12.2214 19.9014C12.4314 19.6913 12.7163 19.5733 13.0133 19.5733C13.3104 19.5733 13.5952 19.6913 13.8053 19.9014C14.0153 20.1114 14.1333 20.3963 14.1333 20.6933C14.1298 20.9916 14.0089 21.2764 13.7967 21.4861C13.5845 21.6958 13.2983 21.8133 13 21.8133V21.84ZM13 17.5866C12.7017 17.5796 12.4183 17.4553 12.2111 17.2407C12.0039 17.026 11.8897 16.7383 11.8933 16.44C11.8933 16.1429 12.0113 15.8581 12.2214 15.648C12.4314 15.438 12.7163 15.32 13.0133 15.32C13.3104 15.32 13.5952 15.438 13.8053 15.648C14.0153 15.8581 14.1333 16.1429 14.1333 16.44C14.1333 16.7383 14.0158 17.0245 13.8061 17.2367C13.5964 17.4489 13.3116 17.5698 13.0133 17.5733L13 17.5866ZM17.24 21.84C16.9394 21.84 16.6511 21.7206 16.4386 21.508C16.2261 21.2955 16.1067 21.0072 16.1067 20.7066C16.1067 20.4061 16.2261 20.1178 16.4386 19.9053C16.6511 19.6927 16.9394 19.5733 17.24 19.5733C17.5406 19.5733 17.8288 19.6927 18.0414 19.9053C18.2539 20.1178 18.3733 20.4061 18.3733 20.7066C18.3733 21.0072 18.2539 21.2955 18.0414 21.508C17.8288 21.7206 17.5406 21.84 17.24 21.84ZM17.24 17.5866C16.9394 17.5866 16.6511 17.4672 16.4386 17.2547C16.2261 17.0422 16.1067 16.7539 16.1067 16.4533C16.1067 16.1527 16.2261 15.8645 16.4386 15.6519C16.6511 15.4394 16.9394 15.32 17.24 15.32C17.5406 15.32 17.8288 15.4394 18.0414 15.6519C18.2539 15.8645 18.3733 16.1527 18.3733 16.4533C18.3733 16.7539 18.2539 17.0422 18.0414 17.2547C17.8288 17.4672 17.5406 17.5866 17.24 17.5866ZM24.64 8.13331C24.7357 8.40762 24.721 8.70837 24.5991 8.97208C24.4772 9.23578 24.2576 9.4418 23.9867 9.54664C23.871 9.588 23.7495 9.61051 23.6267 9.61331H2.62665C2.27303 9.61331 1.93389 9.47283 1.68385 9.22279C1.4338 8.97274 1.29332 8.6336 1.29332 8.27998C1.28956 8.11513 1.32139 7.9514 1.38665 7.79998C1.77757 6.84282 2.37076 5.98148 3.12561 5.27497C3.88045 4.56845 4.7791 4.03346 5.75999 3.70664V1.62664C5.75999 1.38618 5.85551 1.15557 6.02554 0.985533C6.19558 0.8155 6.42619 0.719977 6.66665 0.719977C6.90712 0.719977 7.13773 0.8155 7.30777 0.985533C7.4778 1.15557 7.57332 1.38618 7.57332 1.62664V3.33331H12.3067V1.62664C12.2911 1.49926 12.3028 1.37003 12.3409 1.24749C12.3791 1.12496 12.4428 1.01192 12.5279 0.915839C12.6129 0.819761 12.7174 0.742838 12.8344 0.690155C12.9515 0.637472 13.0783 0.610229 13.2067 0.610229C13.335 0.610229 13.4619 0.637472 13.5789 0.690155C13.6959 0.742838 13.8004 0.819761 13.8855 0.915839C13.9705 1.01192 14.0342 1.12496 14.0724 1.24749C14.1105 1.37003 14.1222 1.49926 14.1067 1.62664V3.33331H18.3333V1.62664C18.3178 1.49926 18.3295 1.37003 18.3676 1.24749C18.4057 1.12496 18.4694 1.01192 18.5545 0.915839C18.6396 0.819761 18.7441 0.742838 18.8611 0.690155C18.9781 0.637472 19.105 0.610229 19.2333 0.610229C19.3617 0.610229 19.4885 0.637472 19.6055 0.690155C19.7226 0.742838 19.8271 0.819761 19.9121 0.915839C19.9972 1.01192 20.0609 1.12496 20.099 1.24749C20.1372 1.37003 20.1489 1.49926 20.1333 1.62664V3.70664C21.1721 4.05249 22.1181 4.63108 22.8991 5.39826C23.6802 6.16544 24.2756 7.10093 24.64 8.13331Z" fill="#3E97FF"/>
</g>
</svg>
