<svg width="26" height="28" viewBox="0 0 26 28" fill="none" xmlns="http://www.w3.org/2000/svg">
<g id="delivery-logistics">
<g id="cube-2">
<path id="Vector" opacity="0.3" d="M10.2133 26.8934L3.22661 22.8934C2.36855 22.3997 1.65787 21.6858 1.16798 20.8256C0.678084 19.9653 0.426753 18.9899 0.439947 18V10C0.433877 9.01693 0.688592 8.04979 1.17813 7.1972C1.66766 6.34462 2.37451 5.63708 3.22661 5.14671L10.2133 1.14671C11.0596 0.654921 12.0211 0.395874 12.9999 0.395874C13.9788 0.395874 14.9403 0.654921 15.7866 1.14671L22.7733 5.14671C23.6254 5.63708 24.3322 6.34462 24.8218 7.1972C25.3113 8.04979 25.566 9.01693 25.5599 10V18C25.559 18.9764 25.3009 19.9352 24.8117 20.7802C24.3225 21.6251 23.6195 22.3264 22.7733 22.8134L15.7866 26.8134C14.9473 27.3174 13.9896 27.5902 13.0107 27.6043C12.0318 27.6184 11.0667 27.3731 10.2133 26.8934Z" fill="#50CD89"/>
<path id="Vector_2" opacity="0.3" d="M24.8133 7.18671C24.3288 6.33591 23.6241 5.63125 22.7733 5.14671L15.7866 1.14671C14.9403 0.654921 13.9788 0.395874 13 0.395874C12.0211 0.395874 11.0597 0.654921 10.2133 1.14671L3.22665 5.14671C2.37584 5.63125 1.67118 6.33591 1.18665 7.18671L13 14L24.8133 7.18671Z" fill="#50CD89"/>
<path id="Vector_3" d="M24.8 7.18677L13 14.0001L13.1733 27.6268C14.1098 27.6108 15.0271 27.3586 15.84 26.8934L22.8267 22.8934C23.6748 22.3929 24.3748 21.6762 24.8551 20.8164C25.3353 19.9566 25.5786 18.9847 25.56 18.0001V10.0001C25.562 9.01135 25.2996 8.04004 24.8 7.18677Z" fill="#50CD89"/>
</g>
</g>
</svg>
