<svg width="24" height="24" viewBox="0 0 24 24" fill="none" xmlns="http://www.w3.org/2000/svg">
<g id="exit-right">
<g id="arrows">
<g id="exit-right_2">
<g id="Exit">
<path id="Vector" opacity="0.3" d="M15.4498 6C15.403 4.94955 14.9445 3.95979 14.1734 3.24488C13.4024 2.52996 12.3808 2.14741 11.3298 2.18H6.99984C5.94208 2.13662 4.91025 2.51434 4.13048 3.23038C3.35071 3.94641 2.88659 4.94237 2.83984 6V18C2.88402 19.0594 3.34702 20.0579 4.12707 20.7761C4.90713 21.4943 5.94042 21.8733 6.99984 21.83H11.3698C12.4157 21.8519 13.4284 21.4632 14.1911 20.7472C14.9537 20.0313 15.4056 19.0451 15.4498 18V6Z" fill="#F1F1F2"/>
<path id="Vector_2" d="M8.68945 11.25H18.5995L16.9995 9.61C16.859 9.46937 16.7801 9.27875 16.7801 9.08C16.7801 8.88125 16.859 8.69062 16.9995 8.55C17.0684 8.47924 17.1508 8.423 17.2418 8.38461C17.3329 8.34621 17.4307 8.32643 17.5295 8.32643C17.6282 8.32643 17.726 8.34621 17.8171 8.38461C17.9081 8.423 17.9905 8.47924 18.0595 8.55L20.9895 11.47C21.1299 11.6106 21.2088 11.8012 21.2088 12C21.2088 12.1987 21.1299 12.3894 20.9895 12.53L17.9995 15.45C17.9306 15.5206 17.8481 15.5764 17.757 15.6143C17.6659 15.6521 17.5681 15.671 17.4695 15.67C17.3709 15.6705 17.2733 15.6512 17.1823 15.6135C17.0912 15.5757 17.0087 15.5201 16.9395 15.45C16.799 15.3094 16.7201 15.1187 16.7201 14.92C16.7201 14.7212 16.799 14.5306 16.9395 14.39L18.5895 12.75H8.68945C8.49054 12.75 8.29978 12.671 8.15912 12.5303C8.01847 12.3897 7.93945 12.1989 7.93945 12C7.93945 11.8011 8.01847 11.6103 8.15912 11.4697C8.29978 11.329 8.49054 11.25 8.68945 11.25Z" fill="#F1F1F2"/>
</g>
</g>
</g>
</g>
</svg>
