<svg width="18" height="20" viewBox="0 0 18 20" fill="none" xmlns="http://www.w3.org/2000/svg">
<g id="arrows">
<g id="exit-right">
<g id="Exit">
<path id="Vector" opacity="0.3" d="M12.1626 4.49999C12.1196 3.53708 11.6993 2.62979 10.9925 1.97446C10.2857 1.31912 9.34929 0.96845 8.38589 0.998322H4.41673C3.44711 0.958558 2.50127 1.3048 1.78648 1.96117C1.07169 2.61754 0.646248 3.5305 0.603394 4.49999V15.5C0.64389 16.4711 1.0683 17.3864 1.78335 18.0447C2.4984 18.7031 3.44558 19.0505 4.41673 19.0108H8.42256C9.38122 19.0309 10.3096 18.6746 11.0087 18.0183C11.7078 17.362 12.122 16.458 12.1626 15.5V4.49999Z" fill="#7E8299"/>
<path id="Vector_2" d="M5.96594 9.31251H15.0501L13.5834 7.80917C13.4547 7.68027 13.3824 7.50553 13.3824 7.32334C13.3824 7.14115 13.4547 6.96641 13.5834 6.83751C13.6466 6.77265 13.7222 6.7211 13.8056 6.6859C13.8891 6.6507 13.9787 6.63257 14.0693 6.63257C14.1598 6.63257 14.2495 6.6507 14.3329 6.6859C14.4164 6.7211 14.4919 6.77265 14.5551 6.83751L17.2409 9.51417C17.3697 9.64308 17.442 9.81782 17.442 10C17.442 10.1822 17.3697 10.3569 17.2409 10.4858L14.5001 13.1625C14.437 13.2272 14.3613 13.2784 14.2778 13.3131C14.1943 13.3477 14.1047 13.3651 14.0143 13.3642C13.9239 13.3646 13.8344 13.347 13.751 13.3124C13.6676 13.2777 13.5919 13.2268 13.5284 13.1625C13.3997 13.0336 13.3274 12.8589 13.3274 12.6767C13.3274 12.4945 13.3997 12.3197 13.5284 12.1908L15.0409 10.6875H5.96594C5.78361 10.6875 5.60874 10.6151 5.47981 10.4861C5.35088 10.3572 5.27844 10.1823 5.27844 10C5.27844 9.81767 5.35088 9.6428 5.47981 9.51387C5.60874 9.38494 5.78361 9.31251 5.96594 9.31251Z" fill="#7E8299"/>
</g>
</g>
</g>
</svg>
