<svg width="12" height="12" viewBox="0 0 12 12" fill="none" xmlns="http://www.w3.org/2000/svg">
<g id="arrows">
<g id="cross">
<path id="Vector" d="M11.4165 11.3408C11.2135 11.5426 10.939 11.6558 10.6528 11.6558C10.3666 11.6558 10.092 11.5426 9.88901 11.3408L0.637343 2.19747C0.535804 2.09676 0.45521 1.97695 0.40021 1.84493C0.345211 1.71292 0.316895 1.57132 0.316895 1.42831C0.316895 1.2853 0.345211 1.1437 0.40021 1.01168C0.45521 0.87967 0.535804 0.759852 0.637343 0.659142C0.840319 0.45737 1.11489 0.344116 1.40109 0.344116C1.68729 0.344116 1.96187 0.45737 2.16484 0.659142L11.4165 9.80248C11.518 9.90319 11.5986 10.023 11.6536 10.155C11.7086 10.287 11.737 10.4286 11.737 10.5716C11.737 10.7147 11.7086 10.8563 11.6536 10.9883C11.5986 11.1203 11.518 11.2401 11.4165 11.3408Z" fill="#A1A5B7"/>
<path id="Vector_2" opacity="0.3" d="M2.16479 11.4167C1.95792 11.6264 1.67621 11.7454 1.38162 11.7474C1.08703 11.7494 0.803699 11.6344 0.593957 11.4275C0.384215 11.2206 0.265242 10.9389 0.26321 10.6443C0.261178 10.3497 0.376255 10.0664 0.583124 9.85667L9.83479 0.583337C10.0417 0.373595 10.3234 0.254622 10.618 0.25259C10.9125 0.250558 11.1959 0.365635 11.4056 0.572503C11.6154 0.779372 11.7343 1.06109 11.7364 1.35568C11.7384 1.65026 11.6233 1.93359 11.4165 2.14334L2.16479 11.4167Z" fill="#A1A5B7"/>
</g>
</g>
</svg>
