<svg width="16" height="18" viewBox="0 0 16 18" fill="none" xmlns="http://www.w3.org/2000/svg">
<g id="general">
<g id="filter-search">
<path id="Vector" opacity="0.3" d="M13.3083 0.666748H2.69167C2.20611 0.666728 1.74018 0.858471 1.39528 1.20025C1.05037 1.54204 0.854402 2.0062 0.850007 2.49175V4.56675C0.847158 5.04982 1.03595 5.51431 1.37501 5.85841L4.50834 9.04175C5.10009 9.64124 5.43233 10.4494 5.43334 11.2917V15.6667C5.41958 15.9841 5.49677 16.2987 5.65583 16.5736C5.81488 16.8485 6.04917 17.0722 6.33111 17.2185C6.61306 17.3647 6.93091 17.4273 7.24725 17.399C7.56358 17.3706 7.86523 17.2525 8.11667 17.0584L9.25834 16.2251C9.46673 16.0783 9.63681 15.8836 9.75427 15.6573C9.87174 15.4311 9.93315 15.18 9.93334 14.9251V11.4167C9.93099 10.9607 10.0256 10.5095 10.211 10.0928C10.3963 9.67616 10.6681 9.30369 11.0083 9.00008L14.5333 5.85841C14.7296 5.68577 14.8863 5.47281 14.9927 5.23408C15.0991 4.99534 15.1528 4.73645 15.15 4.47508V2.49175C15.1456 2.0062 14.9496 1.54204 14.6047 1.20025C14.2598 0.858471 13.7939 0.666728 13.3083 0.666748Z" fill="#3E97FF"/>
<path id="Vector_2" d="M10.8 14.9917C12.7468 14.9917 14.325 13.4135 14.325 11.4667C14.325 9.51985 12.7468 7.94165 10.8 7.94165C8.85319 7.94165 7.27499 9.51985 7.27499 11.4667C7.27499 13.4135 8.85319 14.9917 10.8 14.9917Z" fill="#3E97FF"/>
<path id="Vector_3" d="M14.0583 15.3501C13.9762 15.3505 13.8949 15.3345 13.819 15.303C13.7432 15.2715 13.6744 15.2252 13.6167 15.1668L12.85 14.4001C12.791 14.3426 12.7442 14.274 12.7122 14.1981C12.6802 14.1223 12.6637 14.0408 12.6637 13.9584C12.6637 13.8761 12.6802 13.7946 12.7122 13.7188C12.7442 13.6429 12.791 13.5742 12.85 13.5168C12.9672 13.3997 13.126 13.334 13.2917 13.334C13.4573 13.334 13.6161 13.3997 13.7333 13.5168L14.5 14.2834C14.617 14.4006 14.6828 14.5595 14.6828 14.7251C14.6828 14.8907 14.617 15.0496 14.5 15.1668C14.4423 15.2252 14.3735 15.2715 14.2977 15.303C14.2218 15.3345 14.1405 15.3505 14.0583 15.3501Z" fill="black"/>
</g>
</g>
</svg>
