<svg width="20" height="21" viewBox="0 0 20 21" fill="none" xmlns="http://www.w3.org/2000/svg">
<g id="general">
<path id="home" opacity="0.3" d="M18.51 7.00004L12.76 2.00004C11.9946 1.3425 11.019 0.980957 10.01 0.980957C9.00093 0.980957 8.02531 1.3425 7.25995 2.00004L1.49995 7.00004C1.02556 7.4149 0.646048 7.92704 0.387218 8.50164C0.128388 9.07624 -0.00369398 9.69984 -4.86181e-05 10.33V18.7C-0.000100071 19.3049 0.238098 19.8854 0.662965 20.3159C1.08783 20.7463 1.66517 20.9921 2.26995 21H5.66995C5.97487 21.0054 6.27778 20.9497 6.56091 20.8364C6.84404 20.7231 7.10169 20.5544 7.31872 20.3401C7.53576 20.1259 7.70782 19.8704 7.8248 19.5888C7.94178 19.3072 8.00133 19.005 7.99995 18.7V14.38C7.99208 13.884 8.1576 13.4008 8.46796 13.0137C8.77832 12.6267 9.21405 12.3601 9.69995 12.26C9.99247 12.2034 10.294 12.2128 10.5824 12.2876C10.8708 12.3624 11.1389 12.5007 11.367 12.6924C11.5951 12.8841 11.7775 13.1243 11.9008 13.3955C12.0242 13.6668 12.0854 13.9621 12.08 14.26V18.7C12.0772 19.3022 12.3118 19.8813 12.733 20.3118C13.1541 20.7423 13.7278 20.9895 14.33 21H17.73C18.3347 20.9921 18.9121 20.7463 19.3369 20.3159C19.7618 19.8854 20 19.3049 20 18.7V10.32C20.0021 9.69249 19.8703 9.07171 19.6134 8.49918C19.3564 7.92665 18.9802 7.41555 18.51 7.00004Z" fill="#A1A5B7"/>
</g>
</svg>
