<svg width="16" height="16" viewBox="0 0 16 16" fill="none" xmlns="http://www.w3.org/2000/svg">
<g id="general">
<path id="Vector" d="M13.1533 15.16H10.8867C10.3562 15.16 9.84752 14.9493 9.47244 14.5742C9.09737 14.1991 8.88666 13.6904 8.88666 13.16V10.18C8.88609 10.0524 8.85735 9.92643 8.80249 9.81121C8.74762 9.69598 8.66799 9.5943 8.56927 9.51342C8.47056 9.43253 8.3552 9.37445 8.23144 9.34331C8.10767 9.31218 7.97856 9.30876 7.85332 9.3333C7.64535 9.37854 7.45992 9.4955 7.3295 9.6637C7.19908 9.8319 7.132 10.0406 7.13999 10.2533V13.1333C7.13999 13.6637 6.92928 14.1724 6.5542 14.5475C6.17913 14.9226 5.67042 15.1333 5.13999 15.1333H2.84666C2.31622 15.1333 1.80752 14.9226 1.43244 14.5475C1.05737 14.1724 0.846656 13.6637 0.846656 13.1333V7.5533C0.841084 7.06255 0.941203 6.57635 1.14021 6.12772C1.33922 5.67909 1.63245 5.27855 1.99999 4.9533L5.83999 1.61997C6.44282 1.10708 7.20849 0.825439 7.99999 0.825439C8.79148 0.825439 9.55715 1.10708 10.16 1.61997L13.9933 4.9533C14.3654 5.27529 14.6639 5.67349 14.8687 6.12093C15.0734 6.56837 15.1796 7.05458 15.18 7.54664V13.1333C15.1836 13.4004 15.1336 13.6656 15.033 13.9131C14.9324 14.1606 14.7833 14.3855 14.5944 14.5744C14.4055 14.7633 14.1806 14.9124 13.9331 15.013C13.6856 15.1136 13.4205 15.1636 13.1533 15.16ZM7.99999 8.32664C8.49214 8.32663 8.96423 8.52168 9.31286 8.86906C9.66148 9.21644 9.85823 9.68783 9.85999 10.18V13.1333C9.85999 13.4056 9.96816 13.6667 10.1607 13.8593C10.3532 14.0518 10.6144 14.16 10.8867 14.16H13.1533C13.2887 14.1609 13.4229 14.1349 13.5483 14.0837C13.6736 14.0325 13.7876 13.9571 13.8836 13.8616C13.9796 13.7662 14.0559 13.6527 14.1079 13.5277C14.1599 13.4027 14.1867 13.2687 14.1867 13.1333V7.54664C14.1847 7.19669 14.1075 6.85125 13.9602 6.53377C13.813 6.21629 13.5992 5.9342 13.3333 5.70664L9.49999 2.3733C9.07995 2.01458 8.5457 1.81749 7.99332 1.81749C7.44095 1.81749 6.9067 2.01458 6.48666 2.3733L2.66666 5.7133C2.40029 5.94004 2.18655 6.22212 2.04033 6.5399C1.89411 6.85767 1.81892 7.2035 1.81999 7.5533V13.1333C1.81999 13.2687 1.84676 13.4027 1.89877 13.5277C1.95078 13.6527 2.027 13.7662 2.12305 13.8616C2.21909 13.9571 2.33306 14.0325 2.45839 14.0837C2.58372 14.1349 2.71794 14.1609 2.85332 14.16H5.11999C5.39112 14.1582 5.65055 14.0493 5.84165 13.8569C6.03274 13.6646 6.14 13.4044 6.13999 13.1333V10.2533C6.13485 9.80395 6.28748 9.36703 6.57132 9.01863C6.85515 8.67023 7.2522 8.43243 7.69332 8.34664C7.79498 8.33312 7.89744 8.32644 7.99999 8.32664Z" fill="#A1A5B7"/>
</g>
</svg>
