<svg width="20" height="20" viewBox="0 0 20 20" fill="none" xmlns="http://www.w3.org/2000/svg">
<g id="security">
<g id="key">
<path id="Vector" opacity="0.3" d="M12.2734 0.915894C11.194 0.917533 10.1302 1.1733 9.16799 1.66248C8.20583 2.15166 7.37236 2.86052 6.73507 3.73167C6.09777 4.60282 5.67454 5.61179 5.49965 6.67691C5.32475 7.74202 5.4031 8.83335 5.72836 9.86256L1.20919 14.3817C1.07339 14.5196 0.973216 14.6885 0.917316 14.8737C0.861416 15.059 0.851477 15.2551 0.888357 15.4451L1.32836 17.7459C1.37637 17.9709 1.48848 18.1771 1.65114 18.3398C1.8138 18.5024 2.02006 18.6145 2.24502 18.6626L4.59169 19.1667C4.7824 19.2041 4.97939 19.1935 5.16499 19.1359C5.35059 19.0783 5.51897 18.9755 5.65502 18.8367L7.02086 17.4709L5.05919 15.5734C4.93414 15.4407 4.86449 15.2653 4.86449 15.083C4.86449 14.9007 4.93414 14.7252 5.05919 14.5926C5.18925 14.466 5.36356 14.3952 5.54502 14.3952C5.72649 14.3952 5.9008 14.466 6.03086 14.5926L8.01086 16.4992L10.1834 14.3267C10.8634 14.5521 11.5753 14.6666 12.2917 14.6659C14.1151 14.6659 15.8637 13.9416 17.153 12.6523C18.4424 11.3629 19.1667 9.61426 19.1667 7.79089C19.1667 5.96753 18.4424 4.21885 17.153 2.92953C15.8637 1.64022 14.1151 0.915894 12.2917 0.915894H12.2734Z" fill="#A1A5B7"/>
<path id="Vector_2" d="M12.2734 10.0367C13.5188 10.0367 14.5284 9.02714 14.5284 7.78173C14.5284 6.53633 13.5188 5.52673 12.2734 5.52673C11.028 5.52673 10.0184 6.53633 10.0184 7.78173C10.0184 9.02714 11.028 10.0367 12.2734 10.0367Z" fill="#A1A5B7"/>
</g>
</g>
</svg>
