<svg width="22" height="22" viewBox="0 0 22 22" fill="none" xmlns="http://www.w3.org/2000/svg">
<g id="it-network">
<g id="fasten">
<path id="Vector" opacity="0.3" d="M17.4 4.6C17.589 4.7861 17.739 5.00793 17.8415 5.25257C17.9439 5.49721 17.9967 5.75978 17.9967 6.025C17.9967 6.29022 17.9439 6.55279 17.8415 6.79744C17.739 7.04208 17.589 7.2639 17.4 7.45L13.84 11C13.4634 11.3766 12.9526 11.5882 12.42 11.5882C11.8874 11.5882 11.3766 11.3766 11 11C10.6234 10.6234 10.4118 10.1126 10.4118 9.58C10.4118 9.0474 10.6234 8.53661 11 8.16L14.55 4.6C14.7361 4.41103 14.9579 4.26096 15.2026 4.15853C15.4472 4.0561 15.7098 4.00335 15.975 4.00335C16.2402 4.00335 16.5028 4.0561 16.7474 4.15853C16.9921 4.26096 17.2139 4.41103 17.4 4.6ZM19.53 2.47C19.065 1.99985 18.5114 1.6266 17.9012 1.37186C17.2909 1.11713 16.6362 0.985962 15.975 0.985962C15.3137 0.985962 14.6591 1.11713 14.0488 1.37186C13.4386 1.6266 12.885 1.99985 12.42 2.47L8.86999 6C7.92848 6.94152 7.39954 8.21849 7.39954 9.55C7.39954 10.2093 7.52939 10.8621 7.7817 11.4712C8.034 12.0804 8.4038 12.6338 8.86999 13.1C9.33619 13.5662 9.88964 13.936 10.4987 14.1883C11.1079 14.4406 11.7607 14.5705 12.42 14.5705C13.7515 14.5705 15.0285 14.0415 15.97 13.1L19.53 9.55C20.0001 9.08501 20.3734 8.53138 20.6281 7.92116C20.8829 7.31094 21.014 6.65626 21.014 5.995C21.014 5.33375 20.8829 4.67906 20.6281 4.06884C20.3734 3.45862 20.0001 2.90499 19.53 2.44V2.47Z" fill="#A1A5B7"/>
<path id="Vector_2" d="M13.13 8.87C12.6445 8.37653 12.0576 7.99438 11.41 7.75L11 8.16C10.8125 8.34593 10.6637 8.56713 10.5622 8.81085C10.4606 9.05456 10.4084 9.31598 10.4084 9.58C10.4084 9.84402 10.4606 10.1054 10.5622 10.3492C10.6637 10.5929 10.8125 10.8141 11 11C11.1874 11.1859 11.3362 11.4071 11.4377 11.6508C11.5393 11.8946 11.5916 12.156 11.5916 12.42C11.5916 12.684 11.5393 12.9454 11.4377 13.1892C11.3362 13.4329 11.1874 13.6541 11 13.84L7.44997 17.4C7.07203 17.7779 6.55944 17.9903 6.02497 17.9903C5.49049 17.9903 4.9779 17.7779 4.59997 17.4C4.22203 17.0221 4.00971 16.5095 4.00971 15.975C4.00971 15.4405 4.22203 14.9279 4.59997 14.55L7.74997 11.41C7.2874 10.2338 7.2874 8.92615 7.74997 7.75C7.09157 7.99051 6.49412 8.37287 5.99997 8.87L2.46997 12.42C1.52712 13.3628 0.997437 14.6416 0.997437 15.975C0.997437 17.3084 1.52712 18.5872 2.46997 19.53C3.41281 20.4728 4.69158 21.0025 6.02497 21.0025C7.35835 21.0025 8.63712 20.4728 9.57997 19.53L13.13 16C13.6031 15.5347 13.979 14.9798 14.2355 14.3677C14.492 13.7557 14.6241 13.0987 14.6241 12.435C14.6241 11.7713 14.492 11.1143 14.2355 10.5023C13.979 9.8902 13.6031 9.33533 13.13 8.87Z" fill="#A1A5B7"/>
</g>
</g>
</svg>
