<svg width="20" height="20" viewBox="0 0 20 20" fill="none" xmlns="http://www.w3.org/2000/svg">
<g id="general">
<g id="magnifier">
<path id="Vector" opacity="0.3" d="M18.7083 16.8018L15.8025 14.0518C15.25 14.7631 14.5878 15.3819 13.8408 15.8851L16.8292 18.7268C16.9548 18.8735 17.1102 18.9919 17.285 19.0742C17.4598 19.1565 17.6501 19.2008 17.8432 19.2041C18.0364 19.2074 18.2281 19.1697 18.4056 19.0934C18.5832 19.0172 18.7425 18.9042 18.8731 18.7618C19.0037 18.6194 19.1026 18.451 19.1633 18.2675C19.224 18.0841 19.2451 17.8899 19.2252 17.6977C19.2053 17.5056 19.1449 17.3198 19.0479 17.1527C18.9509 16.9856 18.8195 16.841 18.6625 16.7284L18.7083 16.8018Z" fill="#7E8299"/>
<path id="Vector_2" d="M9.21167 0.833374C7.57998 0.833374 5.98492 1.31723 4.62822 2.22375C3.27151 3.13027 2.21409 4.41874 1.58967 5.92624C0.965244 7.43373 0.801867 9.09252 1.1202 10.6929C1.43852 12.2932 2.22426 13.7632 3.37804 14.917C4.53183 16.0708 6.00183 16.8565 7.60218 17.1749C9.20252 17.4932 10.8613 17.3298 12.3688 16.7054C13.8763 16.081 15.1648 15.0235 16.0713 13.6668C16.9778 12.3101 17.4617 10.7151 17.4617 9.08337C17.4617 6.89534 16.5925 4.79692 15.0453 3.24974C13.4981 1.70257 11.3997 0.833374 9.21167 0.833374ZM9.21167 14.9134C8.06081 14.9134 6.93578 14.5722 5.97875 13.933C5.02172 13.2938 4.27564 12.3853 3.83481 11.3222C3.39397 10.2591 3.27817 9.0892 3.50202 7.96032C3.72588 6.83144 4.27935 5.79425 5.09249 4.97983C5.90563 4.16541 6.94195 3.6103 8.07048 3.38467C9.199 3.15904 10.3691 3.27301 11.4329 3.71217C12.4966 4.15132 13.4064 4.89597 14.0471 5.85199C14.6878 6.80802 15.0307 7.93251 15.0325 9.08337C15.0349 9.84889 14.8861 10.6073 14.5945 11.3152C14.303 12.023 13.8744 12.6662 13.3336 13.2079C12.7927 13.7497 12.1501 14.1792 11.4428 14.4719C10.7354 14.7645 9.97719 14.9146 9.21167 14.9134Z" fill="#7E8299"/>
</g>
</g>
</svg>
