<svg width="22" height="22" viewBox="0 0 22 22" fill="none" xmlns="http://www.w3.org/2000/svg">
<g id="magnifier">
<g id="general">
<g id="magnifier_2">
<path id="Vector" opacity="0.3" d="M19.7073 17.8017L16.8015 15.0517C16.249 15.763 15.5869 16.3818 14.8398 16.885L17.8282 19.7267C17.9538 19.8734 18.1092 19.9919 18.284 20.0741C18.4588 20.1564 18.6491 20.2007 18.8423 20.204C19.0354 20.2073 19.2271 20.1696 19.4047 20.0933C19.5822 20.0171 19.7415 19.9041 19.8721 19.7617C20.0027 19.6193 20.1017 19.4509 20.1624 19.2675C20.2231 19.084 20.2441 18.8898 20.2242 18.6976C20.2043 18.5055 20.1439 18.3197 20.0469 18.1526C19.9499 17.9855 19.8185 17.8409 19.6615 17.7283L19.7073 17.8017Z" fill="#F1F1F2"/>
<path id="Vector_2" d="M10.2109 1.83333C8.57925 1.83333 6.98419 2.31719 5.62749 3.22371C4.27078 4.13023 3.21336 5.4187 2.58894 6.92619C1.96451 8.43368 1.80113 10.0925 2.11946 11.6928C2.43779 13.2932 3.22353 14.7632 4.37731 15.917C5.53109 17.0707 7.0011 17.8565 8.60145 18.1748C10.2018 18.4931 11.8606 18.3298 13.3681 17.7053C14.8756 17.0809 16.164 16.0235 17.0706 14.6668C17.9771 13.3101 18.4609 11.715 18.4609 10.0833C18.4609 7.8953 17.5917 5.79688 16.0446 4.2497C14.4974 2.70253 12.399 1.83333 10.2109 1.83333ZM10.2109 15.9133C9.06008 15.9133 7.93505 15.5722 6.97801 14.933C6.02098 14.2938 5.27491 13.3852 4.83407 12.3221C4.39324 11.2591 4.27744 10.0892 4.50129 8.96028C4.72515 7.8314 5.27862 6.79421 6.09176 5.97979C6.9049 5.16537 7.94122 4.61026 9.06974 4.38463C10.1983 4.159 11.3684 4.27296 12.4321 4.71212C13.4959 5.15128 14.4056 5.89593 15.0463 6.85195C15.687 7.80798 16.03 8.93247 16.0318 10.0833C16.0342 10.8488 15.8853 11.6073 15.5938 12.3151C15.3022 13.0229 14.8737 13.6662 14.3328 14.2079C13.792 14.7496 13.1494 15.1792 12.442 15.4718C11.7347 15.7645 10.9765 15.9145 10.2109 15.9133Z" fill="#F1F1F2"/>
</g>
</g>
</g>
</svg>
