<svg width="20" height="20" viewBox="0 0 20 20" fill="none" xmlns="http://www.w3.org/2000/svg">
<g id="communication">
<g id="messages">
<path id="Vector" d="M15.5459 0.833319H7.9926C7.04445 0.833319 6.13514 1.20997 5.4647 1.88041C4.79425 2.55085 4.4176 3.46017 4.4176 4.40832V4.49999H12.0076C12.9558 4.49999 13.8651 4.87664 14.5355 5.54708C15.206 6.21752 15.5826 7.12684 15.5826 8.07499V13.4283C16.054 13.4307 16.5211 13.3397 16.9571 13.1604C17.393 12.9812 17.7891 12.7173 18.1224 12.384C18.4557 12.0507 18.7196 11.6546 18.8989 11.2186C19.0782 10.7827 19.1692 10.3155 19.1668 9.84415V4.38999C19.1632 3.91852 19.0666 3.4524 18.8826 3.01833C18.6985 2.58425 18.4307 2.19074 18.0943 1.86035C17.758 1.52996 17.3598 1.26918 16.9225 1.09294C16.4852 0.916708 16.0174 0.828482 15.5459 0.833319Z" fill="#7E8299"/>
<g id="Group" opacity="0.3">
<path id="Vector_2" d="M12.0075 4.5H4.50005C3.55264 4.50242 2.64473 4.87985 1.97482 5.54977C1.3049 6.21969 0.927469 7.12759 0.925049 8.075V13.5292C0.932291 14.4734 1.31185 15.3766 1.98124 16.0426C2.65064 16.7085 3.5558 17.0834 4.50005 17.0858H5.61838C5.78082 17.0837 5.94124 17.122 6.08524 17.1972C6.22924 17.2724 6.3523 17.3821 6.44338 17.5167L7.25005 18.6808C7.35816 18.8359 7.50213 18.9625 7.66971 19.05C7.83729 19.1374 8.02352 19.1831 8.21255 19.1831C8.40158 19.1831 8.58781 19.1374 8.75539 19.05C8.92297 18.9625 9.06694 18.8359 9.17505 18.6808L10 17.5167C10.0911 17.3821 10.2142 17.2724 10.3582 17.1972C10.5022 17.122 10.6626 17.0837 10.825 17.0858H11.9892C12.9374 17.0858 13.8467 16.7092 14.5171 16.0387C15.1876 15.3683 15.5642 14.459 15.5642 13.5108V8.05667C15.5594 7.11487 15.1831 6.21301 14.5172 5.54705C13.8512 4.88108 12.9493 4.50482 12.0075 4.5Z" fill="#7E8299"/>
</g>
<path id="Vector_3" d="M5.03171 11.76C5.5076 11.76 5.89338 11.3742 5.89338 10.8983C5.89338 10.4224 5.5076 10.0366 5.03171 10.0366C4.55583 10.0366 4.17004 10.4224 4.17004 10.8983C4.17004 11.3742 4.55583 11.76 5.03171 11.76Z" fill="#7E8299"/>
<path id="Vector_4" d="M8.24008 11.76C8.71597 11.76 9.10175 11.3742 9.10175 10.8983C9.10175 10.4224 8.71597 10.0366 8.24008 10.0366C7.7642 10.0366 7.37842 10.4224 7.37842 10.8983C7.37842 11.3742 7.7642 11.76 8.24008 11.76Z" fill="#7E8299"/>
<path id="Vector_5" d="M11.4392 11.76C11.9151 11.76 12.3008 11.3742 12.3008 10.8983C12.3008 10.4224 11.9151 10.0366 11.4392 10.0366C10.9633 10.0366 10.5775 10.4224 10.5775 10.8983C10.5775 11.3742 10.9633 11.76 11.4392 11.76Z" fill="#7E8299"/>
</g>
</g>
</svg>
