<svg width="16" height="14" viewBox="0 0 16 14" fill="none" xmlns="http://www.w3.org/2000/svg">
<g id="arrows">
<path id="arrow-mix" d="M15.3041 2.28251C15.406 2.38981 15.4627 2.53209 15.4627 2.68001C15.4627 2.82793 15.406 2.97021 15.3041 3.07751L13.3241 5.13251C13.2202 5.23555 13.0805 5.29463 12.9341 5.29751C12.7901 5.29426 12.6529 5.23509 12.5516 5.13251C12.4498 5.02521 12.3931 4.88293 12.3931 4.73501C12.3931 4.58709 12.4498 4.44481 12.5516 4.33751L13.5416 3.31001H11.5391L3.28914 11.785C3.24002 11.8372 3.18074 11.8787 3.11496 11.9071C3.04917 11.9354 2.97828 11.9501 2.90664 11.95H0.994141C0.844956 11.95 0.701882 11.8907 0.596393 11.7853C0.490904 11.6798 0.431641 11.5367 0.431641 11.3875C0.431641 11.2383 0.490904 11.0953 0.596393 10.9898C0.701882 10.8843 0.844956 10.825 0.994141 10.825H2.67414L6.37914 7.00001L2.67414 3.19751H0.994141C0.844956 3.19751 0.701882 3.13825 0.596393 3.03276C0.490904 2.92727 0.431641 2.78419 0.431641 2.63501C0.431641 2.48582 0.490904 2.34275 0.596393 2.23726C0.701882 2.13177 0.844956 2.07251 0.994141 2.07251H2.89914C2.97078 2.07246 3.04168 2.08707 3.10746 2.11545C3.17324 2.14382 3.23252 2.18536 3.28164 2.23751L7.15164 6.25001L10.9016 2.36501C11.0061 2.26261 11.1454 2.20364 11.2916 2.20001H13.6166L12.6266 1.09751C12.5248 0.990207 12.4681 0.847927 12.4681 0.700009C12.4681 0.55209 12.5248 0.409811 12.6266 0.302509C12.7264 0.203581 12.8612 0.148071 13.0016 0.148071C13.1421 0.148071 13.2769 0.203581 13.3766 0.302509L15.3041 2.28251ZM13.3841 8.86751C13.2835 8.77036 13.149 8.71606 13.0091 8.71606C12.8692 8.71606 12.7348 8.77036 12.6341 8.86751C12.5323 8.97481 12.4756 9.11709 12.4756 9.26501C12.4756 9.41293 12.5323 9.55521 12.6341 9.66251L13.6241 10.69H11.8316L9.95664 8.76251C9.85691 8.66358 9.72212 8.60807 9.58164 8.60807C9.44116 8.60807 9.30638 8.66358 9.20664 8.76251C9.1031 8.86892 9.04517 9.01154 9.04517 9.16001C9.04517 9.30848 9.1031 9.4511 9.20664 9.55751L11.2466 11.65C11.2943 11.7019 11.3523 11.7434 11.4168 11.7718C11.4814 11.8002 11.5511 11.8149 11.6216 11.815H13.6166L12.5666 12.9025C12.4613 13.008 12.4021 13.1509 12.4021 13.3C12.4021 13.4491 12.4613 13.592 12.5666 13.6975C12.6152 13.7504 12.6744 13.7924 12.7403 13.8208C12.8062 13.8493 12.8774 13.8635 12.9491 13.8625C13.0208 13.8626 13.0917 13.8479 13.1575 13.8196C13.2232 13.7912 13.2825 13.7497 13.3316 13.6975L15.3116 11.6425C15.4135 11.5352 15.4702 11.3929 15.4702 11.245C15.4702 11.0971 15.4135 10.9548 15.3116 10.8475L13.3841 8.86751Z" fill="white"/>
</g>
</svg>
