<svg width="16" height="16" viewBox="0 0 16 16" fill="none" xmlns="http://www.w3.org/2000/svg">
<g id="04-Next">
<path id="Vector" d="M14.1875 0.125H13.0625C12.1305 0.125 11.375 0.880519 11.375 1.8125V14.1875C11.375 15.1195 12.1305 15.875 13.0625 15.875H14.1875C15.1195 15.875 15.875 15.1195 15.875 14.1875V1.8125C15.875 0.880519 15.1195 0.125 14.1875 0.125Z" fill="white"/>
<path id="Vector_2" d="M3.10625 0.597514C2.85237 0.363844 2.53597 0.209117 2.19565 0.152211C1.85533 0.0953041 1.50581 0.138678 1.18972 0.277041C0.873632 0.415404 0.604648 0.642773 0.415585 0.93141C0.226522 1.22005 0.125554 1.55747 0.125 1.90251V14.0975C0.125554 14.4426 0.226522 14.78 0.415585 15.0686C0.604648 15.3573 0.873632 15.5846 1.18972 15.723C1.50581 15.8613 1.85533 15.9047 2.19565 15.8478C2.53597 15.7909 2.85237 15.6362 3.10625 15.4025L9.65375 9.35564C9.84164 9.18333 9.99166 8.97384 10.0943 8.74047C10.1969 8.5071 10.2499 8.25495 10.2499 8.00001C10.2499 7.74507 10.1969 7.49292 10.0943 7.25955C9.99166 7.02618 9.84164 6.8167 9.65375 6.64439L3.10625 0.597514Z" fill="white"/>
</g>
</svg>
