<svg width="24" height="24" viewBox="0 0 24 24" fill="none" xmlns="http://www.w3.org/2000/svg">
<g id="notification-statu">
<g id="notification">
<g id="notification-statu_2">
<path id="Vector" d="M19 8C20.6569 8 22 6.65685 22 5C22 3.34315 20.6569 2 19 2C17.3431 2 16 3.34315 16 5C16 6.65685 17.3431 8 19 8Z" fill="#F1F1F2"/>
<g id="Group" opacity="0.3">
<path id="Vector_2" d="M19 9.5C17.8073 9.49736 16.6643 9.0224 15.8209 8.17906C14.9776 7.33572 14.5026 6.19266 14.5 5C14.51 4.30367 14.6812 3.61912 15 3H7C5.67392 3 4.40215 3.52678 3.46447 4.46447C2.52678 5.40215 2 6.67392 2 8V17C2 18.3261 2.52678 19.5979 3.46447 20.5355C4.40215 21.4732 5.67392 22 7 22H16C17.3261 22 18.5979 21.4732 19.5355 20.5355C20.4732 19.5979 21 18.3261 21 17V9C20.3809 9.31884 19.6963 9.48998 19 9.5Z" fill="#F1F1F2"/>
</g>
<path id="Vector_3" d="M11.4986 14H6.80859C6.60968 14 6.41892 13.921 6.27826 13.7803C6.13761 13.6397 6.05859 13.4489 6.05859 13.25C6.05859 13.0511 6.13761 12.8603 6.27826 12.7197C6.41892 12.579 6.60968 12.5 6.80859 12.5H11.4986C11.6975 12.5 11.8883 12.579 12.0289 12.7197C12.1696 12.8603 12.2486 13.0511 12.2486 13.25C12.2486 13.4489 12.1696 13.6397 12.0289 13.7803C11.8883 13.921 11.6975 14 11.4986 14Z" fill="#F1F1F2"/>
<path id="Vector_4" d="M15.4986 18H6.80859C6.60968 18 6.41892 17.921 6.27826 17.7803C6.13761 17.6397 6.05859 17.4489 6.05859 17.25C6.05859 17.0511 6.13761 16.8603 6.27826 16.7197C6.41892 16.579 6.60968 16.5 6.80859 16.5H15.4986C15.6975 16.5 15.8883 16.579 16.0289 16.7197C16.1696 16.8603 16.2486 17.0511 16.2486 17.25C16.2486 17.4489 16.1696 17.6397 16.0289 17.7803C15.8883 17.921 15.6975 18 15.4986 18Z" fill="#F1F1F2"/>
</g>
</g>
</g>
</svg>
