<svg width="24" height="26" viewBox="0 0 24 26" fill="none" xmlns="http://www.w3.org/2000/svg">
<g id="notification">
<g id="notification-on">
<g id="Group" opacity="0.3">
<path id="Vector" d="M20.85 16.75C19.7291 15.0486 19.1456 13.0496 19.175 11.0125V10.8C19.1737 9.64018 18.8847 8.49883 18.334 7.47813C17.7833 6.45743 16.988 5.58925 16.0194 4.95136C15.0508 4.31347 13.9391 3.92577 12.7839 3.823C11.6287 3.72023 10.466 3.90558 9.39998 4.36247C8.1523 4.87832 7.08838 5.75713 6.34617 6.88493C5.60396 8.01273 5.2177 9.3375 5.23748 10.6875V10.775C5.24561 12.9572 4.54849 15.0836 3.24998 16.8375L2.42498 18C2.09104 18.4571 1.91152 19.0088 1.91248 19.575C1.91248 20.2778 2.19168 20.9518 2.68865 21.4488C3.18562 21.9458 3.85966 22.225 4.56248 22.225H19.5C19.848 22.225 20.1926 22.1564 20.5141 22.0233C20.8356 21.8901 21.1277 21.6949 21.3738 21.4488C21.6199 21.2027 21.8151 20.9106 21.9483 20.5891C22.0814 20.2676 22.15 19.923 22.15 19.575V19.5C22.153 18.9663 21.9963 18.4439 21.7 18L20.85 16.75Z" fill="#7E8299"/>
</g>
<path id="Vector_2" d="M9.61255 23.4124C9.75648 23.942 10.0707 24.4095 10.5067 24.7428C10.9427 25.0761 11.4762 25.2567 12.025 25.2567C12.5739 25.2567 13.1074 25.0761 13.5434 24.7428C13.9794 24.4095 14.2936 23.942 14.4375 23.4124H9.61255Z" fill="#7E8299"/>
<path id="Vector_3" d="M12.95 3.86245V1.44995C12.95 1.20131 12.8512 0.962854 12.6754 0.787038C12.4996 0.611223 12.2611 0.512451 12.0125 0.512451C11.7639 0.512451 11.5254 0.611223 11.3496 0.787038C11.1738 0.962854 11.075 1.20131 11.075 1.44995V3.81245C11.0694 3.84555 11.0694 3.87935 11.075 3.91245C11.6949 3.81175 12.3256 3.79493 12.95 3.86245Z" fill="black"/>
<path id="Vector_4" d="M1.23749 11.7499C1.01236 11.752 0.794211 11.6719 0.623924 11.5246C0.453637 11.3773 0.342909 11.173 0.312494 10.9499C0.0652413 9.46725 0.224043 7.94528 0.772043 6.54557C1.32004 5.14586 2.23679 3.92063 3.42499 2.99994C3.63385 2.85738 3.89078 2.80364 4.13927 2.85052C4.38776 2.8974 4.60744 3.04108 4.74999 3.24994C4.89255 3.45879 4.94629 3.71573 4.89941 3.96421C4.85253 4.2127 4.70885 4.43238 4.49999 4.57494C3.60259 5.29436 2.91302 6.23984 2.50219 7.31415C2.09136 8.38845 1.97411 9.55279 2.16249 10.6874C2.18006 10.8091 2.17322 10.933 2.14236 11.0519C2.1115 11.1709 2.05725 11.2825 1.98277 11.3803C1.90829 11.478 1.81508 11.56 1.70858 11.6213C1.60208 11.6826 1.48443 11.7221 1.36249 11.7374L1.23749 11.7499Z" fill="black"/>
<path id="Vector_5" d="M22.7626 11.7499H22.6376C22.5156 11.7346 22.398 11.6951 22.2915 11.6338C22.185 11.5724 22.0918 11.4905 22.0173 11.3928C21.9428 11.295 21.8885 11.1834 21.8577 11.0644C21.8268 10.9455 21.82 10.8216 21.8376 10.6999C22.0243 9.56349 21.9064 8.39785 21.4957 7.32185C21.0851 6.24586 20.3965 5.29801 19.5001 4.57493C19.3966 4.50435 19.3081 4.41408 19.2396 4.30929C19.1711 4.20451 19.1239 4.08725 19.1006 3.96421C19.0774 3.84117 19.0787 3.71477 19.1043 3.59221C19.1299 3.46965 19.1795 3.35335 19.2501 3.24993C19.3926 3.04107 19.6123 2.8974 19.8608 2.85052C19.9838 2.8273 20.1102 2.82855 20.2328 2.85418C20.3553 2.87982 20.4716 2.92935 20.5751 2.99993C21.755 3.9163 22.6666 5.1333 23.2142 6.52329C23.7618 7.91327 23.9253 9.425 23.6876 10.8999C23.6687 11.132 23.5629 11.3485 23.3915 11.506C23.22 11.6636 22.9954 11.7507 22.7626 11.7499Z" fill="black"/>
</g>
</g>
</svg>
