<svg width="20" height="20" viewBox="0 0 20 20" fill="none" xmlns="http://www.w3.org/2000/svg">
<g id="notification">
<g id="notification-statu">
<path id="Vector" d="M16.4167 6.33337C17.9355 6.33337 19.1667 5.10216 19.1667 3.58337C19.1667 2.06459 17.9355 0.833374 16.4167 0.833374C14.898 0.833374 13.6667 2.06459 13.6667 3.58337C13.6667 5.10216 14.898 6.33337 16.4167 6.33337Z" fill="#7E8299"/>
<g id="Group" opacity="0.3">
<path id="Vector_2" d="M16.4167 7.70833C15.3234 7.70591 14.2756 7.27054 13.5026 6.49747C12.7295 5.72441 12.2941 4.67661 12.2917 3.58333C12.3009 2.94503 12.4578 2.31753 12.75 1.75H5.41671C4.20113 1.75 3.03534 2.23289 2.1758 3.09243C1.31626 3.95197 0.833374 5.11776 0.833374 6.33333V14.5833C0.833374 15.7989 1.31626 16.9647 2.1758 17.8242C3.03534 18.6838 4.20113 19.1667 5.41671 19.1667H13.6667C14.8823 19.1667 16.0481 18.6838 16.9076 17.8242C17.7672 16.9647 18.25 15.7989 18.25 14.5833V7.25C17.6825 7.54227 17.055 7.69915 16.4167 7.70833Z" fill="#7E8299"/>
</g>
<path id="Vector_3" d="M9.54172 11.8334H5.24255C5.06022 11.8334 4.88535 11.7609 4.75642 11.632C4.62749 11.5031 4.55505 11.3282 4.55505 11.1459C4.55505 10.9635 4.62749 10.7887 4.75642 10.6597C4.88535 10.5308 5.06022 10.4584 5.24255 10.4584H9.54172C9.72406 10.4584 9.89893 10.5308 10.0279 10.6597C10.1568 10.7887 10.2292 10.9635 10.2292 11.1459C10.2292 11.3282 10.1568 11.5031 10.0279 11.632C9.89893 11.7609 9.72406 11.8334 9.54172 11.8334Z" fill="#7E8299"/>
<path id="Vector_4" d="M13.2084 15.5H5.24255C5.06022 15.5 4.88535 15.4276 4.75642 15.2986C4.62749 15.1697 4.55505 14.9948 4.55505 14.8125C4.55505 14.6302 4.62749 14.4553 4.75642 14.3264C4.88535 14.1974 5.06022 14.125 5.24255 14.125H13.2084C13.3907 14.125 13.5656 14.1974 13.6945 14.3264C13.8235 14.4553 13.8959 14.6302 13.8959 14.8125C13.8959 14.9948 13.8235 15.1697 13.6945 15.2986C13.5656 15.4276 13.3907 15.5 13.2084 15.5Z" fill="#7E8299"/>
</g>
</g>
</svg>
