<svg width="26" height="26" viewBox="0 0 26 26" fill="none" xmlns="http://www.w3.org/2000/svg">
<g id="design">
<g id="pencxil">
<path id="Vector" opacity="0.3" d="M24.7499 8.07512L22.0624 10.7751L14.8624 3.57512L17.5624 0.887623C17.7956 0.645668 18.0752 0.453213 18.3845 0.321761C18.6938 0.190309 19.0264 0.122559 19.3624 0.122559C19.6985 0.122559 20.0311 0.190309 20.3404 0.321761C20.6496 0.453213 20.9292 0.645668 21.1624 0.887623L24.7499 4.47512C24.9919 4.70833 25.1844 4.98793 25.3158 5.2972C25.4473 5.60647 25.515 5.93907 25.515 6.27512C25.515 6.61117 25.4473 6.94377 25.3158 7.25305C25.1844 7.56232 24.9919 7.84191 24.7499 8.07512ZM2.61244 25.0501L10.3624 22.4751L3.16244 15.2751L0.58744 23.0251C0.493061 23.3072 0.479179 23.61 0.547355 23.8995C0.615531 24.1891 0.763064 24.4538 0.97339 24.6642C1.18372 24.8745 1.44851 25.022 1.73804 25.0902C2.02756 25.1584 2.33036 25.1445 2.61244 25.0501Z" fill="#7E8299"/>
<path id="Vector_2" d="M4.96244 24.2627L2.61244 25.0502C2.33036 25.1446 2.02756 25.1585 1.73804 25.0903C1.44851 25.0221 1.18372 24.8746 0.97339 24.6642C0.763064 24.4539 0.615531 24.1891 0.547355 23.8996C0.479179 23.6101 0.493061 23.3073 0.58744 23.0252L1.37494 20.6752L4.96244 24.2627ZM3.16244 15.2752L10.3624 22.4752L22.0624 10.7752L14.8624 3.5752L3.16244 15.2752Z" fill="#7E8299"/>
</g>
</g>
</svg>
