<svg width="26" height="26" viewBox="0 0 26 26" fill="none" xmlns="http://www.w3.org/2000/svg">
<g id="general">
<g id="pin">
<path id="Vector" opacity="0.3" d="M3.86255 25.0338L2.37505 25.5338C2.13107 25.6186 1.86816 25.6329 1.61642 25.5751C1.36469 25.5173 1.13431 25.3898 0.951679 25.2072C0.769048 25.0246 0.641548 24.7942 0.583782 24.5425C0.526016 24.2907 0.54032 24.0278 0.625055 23.7838L1.12505 22.2963C1.40764 21.4325 1.89182 20.6484 2.53755 20.0088L6.98755 15.5588L10.6001 19.1713L6.15005 23.6213C5.51048 24.2671 4.72636 24.7513 3.86255 25.0338Z" fill="#7E8299"/>
<path id="Vector_2" d="M25.0751 8.32139L17.8376 1.08389C17.7208 0.960967 17.5802 0.863086 17.4244 0.796201C17.2686 0.729316 17.1009 0.694824 16.9313 0.694824C16.7618 0.694824 16.594 0.729316 16.4382 0.796201C16.2824 0.863086 16.1418 0.960967 16.0251 1.08389L15.1251 1.98389C15.0021 2.10066 14.9043 2.24122 14.8374 2.39702C14.7705 2.55282 14.736 2.72059 14.736 2.89014C14.736 3.05969 14.7705 3.22746 14.8374 3.38326C14.9043 3.53905 15.0021 3.67961 15.1251 3.79639L16.0251 4.69639L12.0751 8.64639C10.8683 8.07269 9.5331 7.82287 8.2006 7.9215C6.86809 8.02012 5.58417 8.46379 4.47506 9.20889C4.19687 9.39681 3.96346 9.64366 3.79138 9.93191C3.6193 10.2202 3.51278 10.5428 3.47937 10.8768C3.44597 11.2109 3.4865 11.5482 3.59809 11.8648C3.70968 12.1814 3.88959 12.4696 4.12506 12.7089L13.4501 22.0339C13.6893 22.2694 13.9775 22.4493 14.2942 22.5609C14.6108 22.6725 14.9481 22.713 15.2821 22.6796C15.6162 22.6462 15.9388 22.5397 16.227 22.3676C16.5153 22.1955 16.7621 21.9621 16.9501 21.6839C17.6952 20.5748 18.1388 19.2909 18.2375 17.9584C18.3361 16.6258 18.0863 15.2906 17.5126 14.0839L21.4626 10.1339L22.3626 11.0339C22.4793 11.1568 22.6199 11.2547 22.7757 11.3216C22.9315 11.3885 23.0993 11.423 23.2688 11.423C23.4384 11.423 23.6061 11.3885 23.7619 11.3216C23.9177 11.2547 24.0583 11.1568 24.1751 11.0339L25.0751 10.1339C25.198 10.0171 25.2959 9.87655 25.3628 9.72076C25.4296 9.56496 25.4641 9.39718 25.4641 9.22764C25.4641 9.05809 25.4296 8.89032 25.3628 8.73452C25.2959 8.57872 25.198 8.43816 25.0751 8.32139Z" fill="#7E8299"/>
</g>
</g>
</svg>
