<svg width="50" height="50" viewBox="0 0 50 50" fill="none" xmlns="http://www.w3.org/2000/svg">
<g id="Group">
<g id="Group_2">
<path id="Vector" d="M42.6781 7.3219C32.9156 -2.44063 17.0844 -2.44063 7.3219 7.3219C-2.44063 17.0844 -2.44063 32.9156 7.3219 42.6781C17.0844 52.4406 32.9156 52.4406 42.6781 42.6781C52.4406 32.9156 52.4406 17.0844 42.6781 7.3219ZM35.9235 26.5303L28.1135 31.0158L20.4617 35.4486C20.1979 35.6596 19.8285 35.7652 19.4591 35.7652C18.4565 35.7652 17.6649 34.9736 17.6649 33.971V25V15.9763C17.6649 15.6596 17.7177 15.3958 17.876 15.0792C18.3509 14.2348 19.4591 13.9182 20.3034 14.4459L28.0079 18.8786C28.0607 18.8786 28.0607 18.9314 28.1135 18.9314L35.9235 23.4169C36.1873 23.5752 36.3984 23.7863 36.6095 24.0501C37.0844 24.9472 36.7678 26.0554 35.9235 26.5303Z" fill="white"/>
</g>
</g>
</svg>
