<svg width="30" height="30" viewBox="0 0 30 30" fill="none" xmlns="http://www.w3.org/2000/svg">
<g id="arrows">
<path id="plus-squared" d="M20.2266 2.53329C21.1774 2.53329 22.1189 2.72056 22.9973 3.0844C23.8757 3.44825 24.6738 3.98154 25.3461 4.65384C26.0184 5.32614 26.5517 6.12427 26.9155 7.00266C27.2794 7.88106 27.4666 8.82252 27.4666 9.77329V20.2266C27.4666 21.1774 27.2794 22.1189 26.9155 22.9973C26.5517 23.8757 26.0184 24.6738 25.3461 25.3461C24.6738 26.0184 23.8757 26.5517 22.9973 26.9155C22.1189 27.2794 21.1774 27.4666 20.2266 27.4666H9.77329C7.85313 27.4666 6.0116 26.7038 4.65384 25.3461C3.29608 23.9883 2.53329 22.1468 2.53329 20.2266V9.77329C2.53329 7.85313 3.29608 6.0116 4.65384 4.65384C6.0116 3.29608 7.85313 2.53329 9.77329 2.53329H20.2266ZM8.77329 16.24H13.76V21.2266C13.76 21.5555 13.8906 21.8709 14.1231 22.1034C14.3557 22.336 14.6711 22.4666 15 22.4666C15.3288 22.4666 15.6442 22.336 15.8768 22.1034C16.1093 21.8709 16.24 21.5555 16.24 21.2266V16.24H21.2266C21.5555 16.24 21.8709 16.1093 22.1034 15.8768C22.336 15.6442 22.4666 15.3288 22.4666 15C22.4666 14.6711 22.336 14.3557 22.1034 14.1231C21.8709 13.8906 21.5555 13.76 21.2266 13.76H16.24V8.77329C16.24 8.44442 16.1093 8.12903 15.8768 7.89648C15.6442 7.66394 15.3288 7.53329 15 7.53329C14.6711 7.53329 14.3557 7.66394 14.1231 7.89648C13.8906 8.12903 13.76 8.44442 13.76 8.77329V13.76H8.77329C8.44442 13.76 8.12903 13.8906 7.89648 14.1231C7.66394 14.3557 7.53329 14.6711 7.53329 15C7.53329 15.3288 7.66394 15.6442 7.89648 15.8768C8.12903 16.1093 8.44442 16.24 8.77329 16.24ZM20.2266 0.666626H9.77329C7.35805 0.666626 5.04174 1.62608 3.33391 3.33391C1.62608 5.04174 0.666626 7.35805 0.666626 9.77329V20.2266C0.666626 22.6419 1.62608 24.9582 3.33391 26.666C5.04174 28.3738 7.35805 29.3333 9.77329 29.3333H20.2266C22.6419 29.3333 24.9582 28.3738 26.666 26.666C28.3738 24.9582 29.3333 22.6419 29.3333 20.2266V9.77329C29.3333 7.35805 28.3738 5.04174 26.666 3.33391C24.9582 1.62608 22.6419 0.666626 20.2266 0.666626Z" fill="black"/>
</g>
</svg>
