<svg width="25" height="30" viewBox="0 0 25 30" fill="none" xmlns="http://www.w3.org/2000/svg">
<g id="security">
<g id="shield-cross">
<path id="Vector" opacity="0.3" d="M9.3645 28.4605L2.67075 22.9917C2.09837 22.5295 1.63639 21.9452 1.3185 21.2817C1.00061 20.6182 0.834831 19.8921 0.833252 19.1563V8.43757C0.833793 7.48533 1.10933 6.55352 1.62674 5.75412C2.14415 4.95472 2.88141 4.32176 3.74992 3.93132L10.4583 0.868817C11.1036 0.573665 11.8049 0.420898 12.5145 0.420898C13.2241 0.420898 13.9254 0.573665 14.5708 0.868817L21.2499 3.93132C22.1184 4.32176 22.8557 4.95472 23.3731 5.75412C23.8905 6.55352 24.166 7.48533 24.1666 8.43757V19.1563C24.1668 19.8909 24.0032 20.6163 23.6879 21.2797C23.3726 21.9432 22.9134 22.528 22.3437 22.9917L15.6499 28.4605C14.766 29.192 13.6546 29.5923 12.5072 29.5923C11.3598 29.5923 10.2484 29.192 9.3645 28.4605Z" fill="#3E97FF"/>
<path id="Vector_2" d="M15.4167 18.9374C15.2763 18.9388 15.1371 18.9125 15.0069 18.86C14.8768 18.8074 14.7583 18.7296 14.6583 18.6311L8.825 12.929C8.62017 12.7239 8.50513 12.446 8.50513 12.1561C8.50513 11.8663 8.62017 11.5883 8.825 11.3832C9.03436 11.1809 9.3141 11.0679 9.60521 11.0679C9.89632 11.0679 10.176 11.1809 10.3854 11.3832L16.2187 17.0853C16.4236 17.2904 16.5386 17.5683 16.5386 17.8582C16.5386 18.148 16.4236 18.426 16.2187 18.6311C16.1121 18.7329 15.9863 18.8125 15.8486 18.865C15.7108 18.9176 15.564 18.9422 15.4167 18.9374Z" fill="#3E97FF"/>
<path id="Vector_3" d="M9.5832 18.9377C9.43728 18.9387 9.2926 18.9109 9.15746 18.8559C9.02232 18.8008 8.89938 18.7196 8.7957 18.6169C8.59088 18.4118 8.47583 18.1338 8.47583 17.844C8.47583 17.5541 8.59088 17.2762 8.7957 17.0711L14.629 11.369C14.7217 11.234 14.8434 11.1215 14.9853 11.0399C15.1272 10.9582 15.2856 10.9094 15.4488 10.8971C15.6121 10.8848 15.776 10.9094 15.9285 10.9689C16.081 11.0284 16.2182 11.1214 16.33 11.241C16.4418 11.3606 16.5253 11.5038 16.5744 11.6599C16.6234 11.8161 16.6368 11.9813 16.6135 12.1434C16.5902 12.3054 16.5309 12.4602 16.4398 12.5962C16.3488 12.7323 16.2283 12.8461 16.0874 12.9294L10.254 18.6315C10.0713 18.8062 9.83491 18.9141 9.5832 18.9377Z" fill="#3E97FF"/>
</g>
</g>
</svg>
