<svg width="20" height="20" viewBox="0 0 20 20" fill="none" xmlns="http://www.w3.org/2000/svg">
<g id="arrows">
<g id="dots-square">
<path id="Vector" opacity="0.3" d="M14.25 0H5.75C2.57436 0 0 2.57436 0 5.75V14.25C0 17.4256 2.57436 20 5.75 20H14.25C17.4256 20 20 17.4256 20 14.25V5.75C20 2.57436 17.4256 0 14.25 0Z" fill="#A1A5B7"/>
<path id="Vector_2" d="M10.3693 11.22C11.1094 11.22 11.7093 10.6201 11.7093 9.87999C11.7093 9.13993 11.1094 8.53999 10.3693 8.53999C9.62924 8.53999 9.0293 9.13993 9.0293 9.87999C9.0293 10.6201 9.62924 11.22 10.3693 11.22Z" fill="#A1A5B7"/>
<path id="Vector_3" d="M5.34977 11.22C6.08983 11.22 6.68976 10.6201 6.68976 9.87999C6.68976 9.13993 6.08983 8.53999 5.34977 8.53999C4.6097 8.53999 4.00977 9.13993 4.00977 9.87999C4.00977 10.6201 4.6097 11.22 5.34977 11.22Z" fill="#A1A5B7"/>
<path id="Vector_4" d="M15.3791 11.22C16.1191 11.22 16.7191 10.6201 16.7191 9.87999C16.7191 9.13993 16.1191 8.53999 15.3791 8.53999C14.639 8.53999 14.0391 9.13993 14.0391 9.87999C14.0391 10.6201 14.639 11.22 15.3791 11.22Z" fill="#A1A5B7"/>
</g>
</g>
</svg>
