<svg width="31" height="30" viewBox="0 0 31 30" fill="none" xmlns="http://www.w3.org/2000/svg">
<g id="arrows">
<g id="duble-check-circle">
<path id="Vector" opacity="0.3" d="M15.5 29.5832C23.5541 29.5832 30.0833 23.054 30.0833 14.9998C30.0833 6.94568 23.5541 0.416504 15.5 0.416504C7.44581 0.416504 0.916626 6.94568 0.916626 14.9998C0.916626 23.054 7.44581 29.5832 15.5 29.5832Z" fill="#3E97FF"/>
<path id="Vector_2" opacity="0.3" d="M18.6062 20.4102L26.6999 12.3164C26.9172 12.0565 27.0294 11.7246 27.0143 11.3862C26.9992 11.0477 26.858 10.7271 26.6184 10.4876C26.3788 10.248 26.0583 10.1068 25.7198 10.0917C25.3813 10.0766 25.0495 10.1887 24.7895 10.406L17.6583 17.5519L13.2104 13.1039C12.9557 12.8692 12.62 12.742 12.2737 12.7491C11.9274 12.7561 11.5972 12.8968 11.3523 13.1417C11.1074 13.3867 10.9667 13.7168 10.9596 14.0632C10.9526 14.4095 11.0797 14.7451 11.3145 14.9998L16.6958 20.3956C16.9573 20.6407 17.2999 20.7809 17.6583 20.7894C18.0119 20.7928 18.3525 20.6566 18.6062 20.4102Z" fill="#3E97FF"/>
<path id="Vector_3" d="M11.6062 20.25L19.6854 12.1563C19.9202 11.9016 20.0473 11.566 20.0403 11.2197C20.0333 10.8733 19.8925 10.5432 19.6476 10.2982C19.4027 10.0533 19.0725 9.9126 18.7262 9.90555C18.3799 9.89851 18.0443 10.0257 17.7896 10.2604L10.6437 17.3917L6.26874 12.9438C6.1433 12.8145 5.99363 12.7112 5.82827 12.6398C5.66291 12.5684 5.4851 12.5302 5.30499 12.5275C4.94125 12.522 4.59023 12.6613 4.32916 12.9146C4.19989 13.04 4.09659 13.1897 4.02517 13.3551C3.95374 13.5204 3.91558 13.6983 3.91287 13.8784C3.90741 14.2421 4.04666 14.5931 4.29999 14.8542L9.66666 20.25C9.92069 20.502 10.264 20.6435 10.6219 20.6435C10.9797 20.6435 11.323 20.502 11.5771 20.25H11.6062Z" fill="#3E97FF"/>
</g>
</g>
</svg>
