<svg width="28" height="28" viewBox="0 0 28 28" fill="none" xmlns="http://www.w3.org/2000/svg">
<g id="users">
<g id="profile-2user">
<path id="Vector" opacity="0.3" d="M10.04 13.2C13.5304 13.2 16.36 10.3943 16.36 6.93329C16.36 3.47231 13.5304 0.666626 10.04 0.666626C6.54953 0.666626 3.71997 3.47231 3.71997 6.93329C3.71997 10.3943 6.54953 13.2 10.04 13.2Z" fill="#F7C000"/>
<path id="Vector_2" d="M10.04 27.3333C15.2167 27.3333 19.4133 24.5276 19.4133 21.0666C19.4133 17.6056 15.2167 14.7999 10.04 14.7999C4.86321 14.7999 0.666626 17.6056 0.666626 21.0666C0.666626 24.5276 4.86321 27.3333 10.04 27.3333Z" fill="#F7C000"/>
<g id="Group" opacity="0.3">
<path id="Vector_3" d="M19.8533 3.33333C19.1197 3.33417 18.3956 3.49813 17.7333 3.81333C18.2921 5.16954 18.4732 6.65179 18.2572 8.10264C18.0412 9.55348 17.4362 10.9187 16.5066 12.0533C17.1097 12.6026 17.8378 12.9963 18.6276 13.2004C19.4174 13.4046 20.2451 13.4129 21.0388 13.2246C21.8326 13.0364 22.5684 12.6573 23.1824 12.1203C23.7965 11.5833 24.2702 10.9045 24.5625 10.1429C24.8548 9.38132 24.9568 8.55991 24.8597 7.74996C24.7626 6.94 24.4694 6.16597 24.0054 5.49503C23.5414 4.82409 22.9207 4.27651 22.1971 3.89981C21.4736 3.5231 20.669 3.32865 19.8533 3.33333Z" fill="#F7C000"/>
</g>
<path id="Vector_4" d="M19.8533 14.6666C19.1052 14.666 18.3591 14.742 17.6266 14.8933C18.728 15.5172 19.6524 16.4113 20.3126 17.4914C20.9727 18.5715 21.347 19.8019 21.3999 21.0666C21.394 22.3495 21.009 23.602 20.2933 24.6666C24.2133 24.52 27.3333 22.3466 27.3333 19.68C27.3333 17.0133 23.9866 14.6666 19.8533 14.6666Z" fill="#F7C000"/>
</g>
</g>
</svg>
