<svg width="16" height="18" viewBox="0 0 16 18" fill="none" xmlns="http://www.w3.org/2000/svg">
<g id="time">
<g id="calendar">
<path id="Vector" opacity="0.3" d="M0.333984 8.07494V12.8166C0.333984 14.0145 0.809846 15.1633 1.65689 16.0104C2.50392 16.8574 3.65276 17.3333 4.85065 17.3333H11.1507C11.7438 17.3333 12.3311 17.2164 12.8791 16.9895C13.4271 16.7625 13.925 16.4298 14.3444 16.0104C14.7638 15.591 15.0965 15.093 15.3235 14.5451C15.5505 13.9971 15.6673 13.4097 15.6673 12.8166V8.07494C15.6673 7.8937 15.5953 7.7199 15.4672 7.59175C15.339 7.4636 15.1652 7.3916 14.984 7.3916H1.01732C0.836086 7.3916 0.662278 7.4636 0.534128 7.59175C0.405978 7.7199 0.333984 7.8937 0.333984 8.07494Z" fill="#A1A5B7"/>
<path id="Vector_2" d="M15.3748 5.31663C15.4136 5.42074 15.4268 5.53267 15.4132 5.64295C15.3996 5.75323 15.3596 5.85861 15.2967 5.95017C15.2337 6.04173 15.1496 6.11678 15.0515 6.16897C14.9534 6.22115 14.8442 6.24893 14.7331 6.24996H1.39976C1.26395 6.25092 1.12995 6.21867 1.00945 6.15601C0.888945 6.09335 0.785582 6.00219 0.708357 5.89046C0.631133 5.77874 0.582388 5.64982 0.566366 5.51495C0.550344 5.38008 0.56753 5.24334 0.616428 5.11663C0.869216 4.5105 1.25045 3.9664 1.73384 3.52185C2.21724 3.0773 2.79129 2.74287 3.41643 2.54163V1.24163C3.41532 1.16651 3.42917 1.09193 3.45715 1.02221C3.48513 0.952496 3.5267 0.88904 3.57943 0.835534C3.63216 0.782029 3.695 0.739541 3.7643 0.710544C3.8336 0.681547 3.90797 0.666618 3.98309 0.666626C4.13559 0.666626 4.28185 0.727206 4.38968 0.83504C4.49751 0.942873 4.55809 1.08913 4.55809 1.24163V2.33329C4.66643 2.33329 4.73309 2.33329 4.82476 2.33329H7.54976V1.24163C7.54976 1.08913 7.61034 0.942873 7.71817 0.83504C7.82601 0.727206 7.97226 0.666626 8.12476 0.666626C8.27726 0.666626 8.42351 0.727206 8.53135 0.83504C8.63918 0.942873 8.69976 1.08913 8.69976 1.24163V2.33329H11.1164C11.2081 2.33329 11.2914 2.33329 11.3831 2.33329V1.24163C11.382 1.16651 11.3958 1.09193 11.4238 1.02221C11.4518 0.952496 11.4934 0.88904 11.5461 0.835534C11.5988 0.782029 11.6617 0.739541 11.731 0.710544C11.8003 0.681547 11.8746 0.666618 11.9498 0.666626C12.1023 0.666626 12.2485 0.727206 12.3563 0.83504C12.4642 0.942873 12.5248 1.08913 12.5248 1.24163V2.54163C13.1789 2.75817 13.7754 3.12047 14.2691 3.60118C14.7628 4.08189 15.1409 4.66846 15.3748 5.31663ZM5.27476 9.83329C5.13503 9.83494 4.99891 9.87787 4.88353 9.9567C4.76815 10.0355 4.67866 10.1467 4.62632 10.2763C4.57398 10.4059 4.56114 10.548 4.5894 10.6849C4.61767 10.8217 4.68578 10.9471 4.78517 11.0454C4.88455 11.1436 5.01077 11.2102 5.14794 11.2369C5.28511 11.2636 5.42711 11.2491 5.55605 11.1952C5.685 11.1414 5.79514 11.0506 5.87261 10.9343C5.95008 10.818 5.99142 10.6814 5.99143 10.5416C5.98923 10.353 5.91276 10.1728 5.7786 10.0402C5.64443 9.90764 5.4634 9.83328 5.27476 9.83329ZM7.94976 9.83329C7.81003 9.83494 7.67391 9.87787 7.55853 9.9567C7.44315 10.0355 7.35365 10.1467 7.30132 10.2763C7.24898 10.4059 7.23614 10.548 7.2644 10.6849C7.29267 10.8217 7.36078 10.9471 7.46017 11.0454C7.55955 11.1436 7.68577 11.2102 7.82294 11.2369C7.96011 11.2636 8.10211 11.2491 8.23105 11.1952C8.36 11.1414 8.47014 11.0506 8.54761 10.9343C8.62508 10.818 8.66642 10.6814 8.66643 10.5416C8.66424 10.353 8.58776 10.1728 8.4536 10.0402C8.31943 9.90764 8.1384 9.83328 7.94976 9.83329ZM10.6498 9.83329C10.5567 9.83329 10.4646 9.85161 10.3787 9.88721C10.2928 9.92281 10.2147 9.97498 10.1489 10.0408C10.0831 10.1065 10.0309 10.1846 9.99535 10.2706C9.95975 10.3565 9.94143 10.4486 9.94143 10.5416C9.94143 10.6346 9.95975 10.7268 9.99535 10.8127C10.0309 10.8986 10.0831 10.9767 10.1489 11.0425C10.2147 11.1083 10.2928 11.1604 10.3787 11.196C10.4646 11.2316 10.5567 11.25 10.6498 11.25C10.7428 11.25 10.8349 11.2316 10.9208 11.196C11.0068 11.1604 11.0849 11.1083 11.1506 11.0425C11.2164 10.9767 11.2686 10.8986 11.3042 10.8127C11.3398 10.7268 11.3581 10.6346 11.3581 10.5416C11.3581 10.4486 11.3398 10.3565 11.3042 10.2706C11.2686 10.1846 11.2164 10.1065 11.1506 10.0408C11.0849 9.97498 11.0068 9.92281 10.9208 9.88721C10.8349 9.85161 10.7428 9.83329 10.6498 9.83329ZM5.26643 12.5C5.1267 12.5016 4.99058 12.5445 4.8752 12.6234C4.75981 12.7022 4.67032 12.8134 4.61799 12.943C4.56565 13.0725 4.5528 13.2147 4.58107 13.3515C4.60933 13.4884 4.67745 13.6138 4.77683 13.712C4.87622 13.8103 5.00244 13.8769 5.13961 13.9036C5.27678 13.9302 5.41877 13.9157 5.54772 13.8619C5.67666 13.808 5.7868 13.7172 5.86427 13.6009C5.94174 13.4846 5.98309 13.348 5.98309 13.2083C5.9831 13.1146 5.96451 13.0218 5.92839 12.9353C5.89227 12.8488 5.83935 12.7703 5.77269 12.7045C5.70603 12.6386 5.62696 12.5866 5.54006 12.5515C5.45315 12.5164 5.36015 12.4989 5.26643 12.5ZM7.94143 12.5C7.8017 12.5016 7.66558 12.5445 7.5502 12.6234C7.43481 12.7022 7.34532 12.8134 7.29298 12.943C7.24065 13.0725 7.2278 13.2147 7.25607 13.3515C7.28433 13.4884 7.35245 13.6138 7.45183 13.712C7.55122 13.8103 7.67744 13.8769 7.81461 13.9036C7.95178 13.9302 8.09377 13.9157 8.22272 13.8619C8.35167 13.808 8.4618 13.7172 8.53927 13.6009C8.61674 13.4846 8.65808 13.348 8.6581 13.2083C8.6581 13.1146 8.63951 13.0218 8.60339 12.9353C8.56727 12.8488 8.51435 12.7703 8.44769 12.7045C8.38103 12.6386 8.30196 12.5866 8.21505 12.5515C8.12815 12.5164 8.03515 12.4989 7.94143 12.5ZM10.6331 12.5C10.4938 12.5032 10.3585 12.5476 10.2442 12.6274C10.1299 12.7072 10.0417 12.8189 9.99068 12.9486C9.93962 13.0783 9.92795 13.2201 9.95713 13.3564C9.98631 13.4927 10.0551 13.6174 10.1548 13.7148C10.2544 13.8122 10.3807 13.878 10.5176 13.904C10.6545 13.93 10.7961 13.915 10.9245 13.861C11.053 13.8069 11.1627 13.7161 11.2398 13.6C11.3169 13.4839 11.3581 13.3477 11.3581 13.2083C11.357 13.1142 11.3374 13.0212 11.3004 12.9347C11.2633 12.8481 11.2096 12.7697 11.1423 12.704C11.075 12.6382 10.9954 12.5863 10.908 12.5513C10.8206 12.5163 10.7272 12.4989 10.6331 12.5Z" fill="#A1A5B7"/>
</g>
</g>
</svg>
