<svg width="34" height="24" viewBox="0 0 34 24" fill="none" xmlns="http://www.w3.org/2000/svg">
<g id="icon">
<path id="Vector" d="M26.457 1.19526L33.0033 21.5779C33.3602 22.6892 32.5312 23.8261 31.364 23.8261H26.5503C25.8001 23.8261 25.1363 23.3404 24.9093 22.6254L18.4374 2.24279C18.0849 1.13256 18.9136 0 20.0784 0H24.8177C25.5658 0 26.2283 0.483029 26.457 1.19526Z" fill="#EF305E"/>
<g id="Group" filter="url(#filter0_i_12493_19623)">
<path id="Vector_2" d="M20.1858 16.2704L15.5697 1.48465C15.294 0.601442 14.4761 0 13.5509 0C12.4247 0 11.496 0.882546 11.4387 2.00729L10.8755 13.059C10.8556 13.4516 10.9029 13.8446 11.0156 14.2212L13.5214 22.5978C13.7394 23.3267 14.4101 23.8261 15.1709 23.8261H17.5002C18.2496 23.8261 18.9129 23.3414 19.1406 22.6273L20.1764 19.3788C20.4986 18.3682 20.5018 17.2829 20.1858 16.2704Z" fill="#F4F4F4"/>
<path id="Vector_3" d="M20.1858 16.2704L15.5697 1.48465C15.294 0.601442 14.4761 0 13.5509 0C12.4247 0 11.496 0.882546 11.4387 2.00729L10.8755 13.059C10.8556 13.4516 10.9029 13.8446 11.0156 14.2212L13.5214 22.5978C13.7394 23.3267 14.4101 23.8261 15.1709 23.8261H17.5002C18.2496 23.8261 18.9129 23.3414 19.1406 22.6273L20.1764 19.3788C20.4986 18.3682 20.5018 17.2829 20.1858 16.2704Z" fill="url(#paint0_linear_12493_19623)"/>
</g>
<path id="Vector_4" d="M8.89578 0H13.6368C14.7978 0 15.626 1.12554 15.2806 2.23393L8.87534 22.7904C8.65117 23.5099 7.98515 24 7.23155 24H2.49051C1.32955 24 0.501353 22.8745 0.846724 21.766L7.252 1.20954C7.47621 0.490076 8.14222 0 8.89578 0Z" fill="#EF305E"/>
</g>
<defs>
<filter id="filter0_i_12493_19623" x="6.87109" y="0" width="13.5488" height="26.8261" filterUnits="userSpaceOnUse" color-interpolation-filters="sRGB">
<feFlood flood-opacity="0" result="BackgroundImageFix"/>
<feBlend mode="normal" in="SourceGraphic" in2="BackgroundImageFix" result="shape"/>
<feColorMatrix in="SourceAlpha" type="matrix" values="0 0 0 0 0 0 0 0 0 0 0 0 0 0 0 0 0 0 127 0" result="hardAlpha"/>
<feOffset dx="-4" dy="3"/>
<feGaussianBlur stdDeviation="2"/>
<feComposite in2="hardAlpha" operator="arithmetic" k2="-1" k3="1"/>
<feColorMatrix type="matrix" values="0 0 0 0 0.904167 0 0 0 0 0.892865 0 0 0 0 0.892865 0 0 0 0.4 0"/>
<feBlend mode="normal" in2="shape" result="effect1_innerShadow_12493_19623"/>
</filter>
<linearGradient id="paint0_linear_12493_19623" x1="12.6323" y1="10.5456" x2="21.241" y2="13.1283" gradientUnits="userSpaceOnUse">
<stop stop-opacity="0.2"/>
<stop offset="0.911458" stop-color="white" stop-opacity="0"/>
</linearGradient>
</defs>
</svg>
