<svg width="142" height="26" viewBox="0 0 142 26" fill="none" xmlns="http://www.w3.org/2000/svg">
<g id="Group 811">
<path id="Vector" fill-rule="evenodd" clip-rule="evenodd" d="M91.5543 21.6429H113.087V25.9538H87.2488V0.0827637H113.087V4.39371H91.5543V21.6429Z" fill="white"/>
<path id="Vector_2" fill-rule="evenodd" clip-rule="evenodd" d="M119.551 7.53686V25.9544H115.245V0.0400391L128.167 7.58014L141.089 0.0400391V25.9544H136.778V7.53686L128.167 12.5726L119.551 7.53686Z" fill="white"/>
<path id="Vector_3" fill-rule="evenodd" clip-rule="evenodd" d="M64.2018 21.6328H85.8269V25.96H59.8584V0.0943604H64.2018V21.6328Z" fill="white"/>
<path id="Vector_4" fill-rule="evenodd" clip-rule="evenodd" d="M13.7465 3.59888C16.359 3.59888 18.4848 5.71919 18.4848 8.34254C18.4848 10.9659 16.3645 13.0754 13.7465 13.0754C11.1286 13.0754 9.01367 10.9551 9.01367 8.34254C9.01367 5.73001 11.134 3.59888 13.7465 3.59888Z" fill="white"/>
<path id="Vector_5" fill-rule="evenodd" clip-rule="evenodd" d="M0.910889 13.0156V0.0827637H5.21643V13.0156C5.21643 15.4118 6.05481 17.4401 7.737 19.1169C9.41378 20.7991 11.4421 21.6429 13.8275 21.6429C16.2129 21.6429 18.2412 20.8045 19.9234 19.1169C21.6056 17.4401 22.444 15.4118 22.444 13.0156V0.0827637H26.7549V13.0156C26.7549 16.6017 25.4892 19.647 22.9686 22.173C20.4481 24.699 17.4082 25.9592 13.8329 25.9592C10.2576 25.9592 7.21234 24.699 4.69176 22.173C2.17118 19.647 0.916299 16.6071 0.916299 13.0156" fill="white"/>
<path id="Vector_6" fill-rule="evenodd" clip-rule="evenodd" d="M33.2137 7.60742V25.9546H28.9082V0.110596L28.9515 0.153868L50.4467 12.5837V0.110596H54.7523V25.9546H50.4467V17.5545L33.2137 7.60742Z" fill="white"/>
<path id="Vector_7" d="M106.196 10.7987H98.0127V15.1096H106.196V10.7987Z" fill="white"/>
</g>
</svg>
